<?xml version="1.0" encoding="utf-8"?>
<!-- Generator: Adobe Illustrator 17.1.0, SVG Export Plug-In . SVG Version: 6.00 Build 0)  -->
<!DOCTYPE svg PUBLIC "-//W3C//DTD SVG 1.1//EN" "http://www.w3.org/Graphics/SVG/1.1/DTD/svg11.dtd">
<svg version="1.1" id="ROW_2" xmlns="http://www.w3.org/2000/svg" xmlns:xlink="http://www.w3.org/1999/xlink" x="0px" y="0px"
	 viewBox="118.5 65 113 100" enable-background="new 118.5 65 113 100" xml:space="preserve">
<path d="M214.2,164.9c-2.9,0-5.7-1-7.5-3.2l0,0L175,130l-31.8,31.8l0,0c-1.8,2.1-4.7,3.2-7.5,3.2c-6.1,0-10.7-4.7-10.7-10.7
	c0-2.9,1-5.7,3.2-7.5l0,0L160,115l-31.8-31.8l0,0c-2.1-1.8-3.2-4.6-3.2-7.5c0-6.1,4.7-10.7,10.7-10.7c2.9,0,5.7,1,7.5,3.2l0,0
	l31.8,31.8l31.8-31.8l0,0c1.8-1.8,4.7-3.2,7.5-3.2c6.1,0,10.7,4.7,10.7,10.7c0,2.9-1,5.7-3.2,7.5l0,0L190,115l31.8,31.8l0,0
	c1.8,1.8,3.2,4.7,3.2,7.5C225,160.3,220.3,164.9,214.2,164.9z"/>
</svg>
