<?xml version="1.0" encoding="utf-8"?>
<!-- Generator: Adobe Illustrator 17.1.0, SVG Export Plug-In . SVG Version: 6.00 Build 0)  -->
<!DOCTYPE svg PUBLIC "-//W3C//DTD SVG 1.1//EN" "http://www.w3.org/Graphics/SVG/1.1/DTD/svg11.dtd">
<svg version="1.1" id="Layer_6" xmlns="http://www.w3.org/2000/svg" xmlns:xlink="http://www.w3.org/1999/xlink" x="0px" y="0px"
	 viewBox="125 65 100 100" enable-background="new 125 65 100 100" xml:space="preserve">
<path id="facebook_4_" fill="#010101" d="M198.4,65c0,5.8,0,16.1,0,16.1s-11.9-1.2-14.8,3.4c-1.6,2.5-0.7,9.8-0.8,15
	c5.2,0,10.6,0,15.7,0c-1.3,6.1-2.3,10.3-3.3,15.5c-4.5,0-12.6,0-12.6,0v50c0,0-14.8,0-21.8,0c0-15.4,0-33.4,0-49.8
	c-3.4,0-5.9,0-9.3,0c0-5.8,0-10,0-15.7c3.3,0,5.9,0,9.2,0c0.5-11.5,0.6-22.9,6.4-28.7C173.5,64.3,179.6,65,198.4,65z"/>
</svg>
