<?xml version="1.0" encoding="utf-8"?>
<!-- Generator: Adobe Illustrator 17.1.0, SVG Export Plug-In . SVG Version: 6.00 Build 0)  -->
<!DOCTYPE svg PUBLIC "-//W3C//DTD SVG 1.1//EN" "http://www.w3.org/Graphics/SVG/1.1/DTD/svg11.dtd">
<svg version="1.1" id="ROW_20" xmlns="http://www.w3.org/2000/svg" xmlns:xlink="http://www.w3.org/1999/xlink" x="0px" y="0px"
	 viewBox="125 65 100 100" enable-background="new 125 65 100 100" xml:space="preserve">
<path id="HASHTAG_2_" d="M219.9,101.1h-17.4l-6.4,27.6h13.4c2.9,0,5.2,2.3,5.2,5.2s-2.3,5.2-5.2,5.2h-15.8l-5.1,21.9l0,0
	c-0.6,2.3-2.6,4-5.1,4c-2.9,0-5.2-2.3-5.2-5.2c0-0.4,0.1-0.8,0.1-1.1l0,0l4.5-19.6h-27.3l-5.1,21.9l0,0c-0.6,2.3-2.6,4-5.1,4
	c-2.9,0-5.2-2.3-5.2-5.2c0-0.4,0.1-0.8,0.1-1.1l0,0l4.6-19.6h-15c-2.9,0-5.2-2.3-5.2-5.2s2.3-5.2,5.2-5.2h17.4l6.4-27.6h-13.4
	c-2.9,0-5.2-2.3-5.2-5.2s2.3-5.2,5.2-5.2h15.8l5.1-21.9l0,0c0.5-2.3,2.6-4,5-4c2.9,0,5.2,2.3,5.2,5.2c0,0.4-0.1,0.8-0.1,1.1l0,0
	l-4.5,19.6h27.3l5.1-21.9l0,0c0.5-2.3,2.6-4,5-4c2.9,0,5.2,2.3,5.2,5.2c0,0.4-0.1,0.8-0.1,1.1l0,0l-4.5,19.6h15
	c2.9,0,5.2,2.3,5.2,5.2C225.1,98.8,222.7,101.1,219.9,101.1z M164.5,101.1l-6.4,27.6h27.3l6.4-27.6L164.5,101.1L164.5,101.1z"/>
</svg>
