<?xml version="1.0" encoding="utf-8"?>
<!-- Generator: Adobe Illustrator 17.1.0, SVG Export Plug-In . SVG Version: 6.00 Build 0)  -->
<!DOCTYPE svg PUBLIC "-//W3C//DTD SVG 1.1//EN" "http://www.w3.org/Graphics/SVG/1.1/DTD/svg11.dtd">
<svg version="1.1" id="Layer_5" xmlns="http://www.w3.org/2000/svg" xmlns:xlink="http://www.w3.org/1999/xlink" x="0px" y="0px"
	 viewBox="125 65 100 100" enable-background="new 125 65 100 100" xml:space="preserve">
<path id="instagram_2_" fill="#010101" d="M212.5,165h-75c-6.9,0-12.5-5.6-12.5-12.5v-75c0-6.9,5.6-12.5,12.5-12.5h75
	c6.9,0,12.5,5.6,12.5,12.5v75C225,159.4,219.4,165,212.5,165z M175,95.6c-7.8,0-14.5,4.6-17.6,11.2h0c0,0.1-0.1,0.1-0.1,0.2
	c-0.2,0.4-0.4,0.8-0.5,1.2c-0.1,0.2-0.1,0.4-0.2,0.6c-0.1,0.4-0.2,0.9-0.4,1.3c-0.1,0.2-0.1,0.4-0.2,0.6c-0.1,0.5-0.2,1-0.2,1.4
	c0,0.2-0.1,0.4-0.1,0.6c-0.1,0.7-0.1,1.4-0.1,2.1c0,10.7,8.7,19.4,19.4,19.4c10.7,0,19.4-8.7,19.4-19.4c0-0.7,0-1.4-0.1-2.1
	c0-0.2-0.1-0.4-0.1-0.6c-0.1-0.5-0.1-1-0.2-1.4c0-0.2-0.1-0.4-0.2-0.6c-0.1-0.4-0.2-0.9-0.4-1.3c-0.1-0.2-0.1-0.4-0.2-0.6
	c-0.1-0.4-0.3-0.9-0.5-1.2c0-0.1-0.1-0.1-0.1-0.2h0C189.5,100.2,182.8,95.6,175,95.6z M213.8,81.2c0-2.8-2.2-5-5-5h-10
	c-2.8,0-5,2.2-5,5v10c0,2.8,2.2,5,5,5h10c2.8,0,5-2.2,5-5V81.2L213.8,81.2z M213.8,106.9h-9.2c0.7,2.6,1.1,5.3,1.1,8.1
	c0,16.9-13.7,30.6-30.6,30.6s-30.6-13.7-30.6-30.6c0-2.8,0.4-5.5,1.1-8.1h-9.2v41.9c0,2.8,2.2,5,5,5h67.5c2.8,0,5-2.2,5-5V106.9
	L213.8,106.9z"/>
</svg>
