<?xml version="1.0" encoding="utf-8"?>
<!-- Generator: Adobe Illustrator 17.1.0, SVG Export Plug-In . SVG Version: 6.00 Build 0)  -->
<!DOCTYPE svg PUBLIC "-//W3C//DTD SVG 1.1//EN" "http://www.w3.org/Graphics/SVG/1.1/DTD/svg11.dtd">
<svg version="1.1" id="Layer_3" xmlns="http://www.w3.org/2000/svg" xmlns:xlink="http://www.w3.org/1999/xlink" x="0px" y="0px"
	 viewBox="125 65 100 100" enable-background="new 125 65 100 100" xml:space="preserve">
<path id="MAIL_2_" fill="#010101" d="M193.2,111.5L223.6,82c0.9,0.9,1.4,2,1.4,3.3v59.4c0,1.2-0.5,2.4-1.3,3.2L193.2,111.5z
	 M126.6,81.8c0.8-0.8,1.9-1.2,3.1-1.2h90.6c1.2,0,2.3,0.5,3.1,1.2L175,119.7L126.6,81.8z M126.3,147.9c-0.8-0.8-1.3-2-1.3-3.2V85.3
	c0-1.3,0.5-2.5,1.4-3.3l30.4,29.5L126.3,147.9z M175,129.1l12.7-12.3l35.8,31.3c-0.8,0.8-2,1.3-3.2,1.3h-90.6
	c-1.2,0-2.4-0.5-3.2-1.3l35.8-31.3L175,129.1z"/>
</svg>
