<?xml version="1.0" encoding="utf-8"?>
<!-- Generator: Adobe Illustrator 17.1.0, SVG Export Plug-In . SVG Version: 6.00 Build 0)  -->
<!DOCTYPE svg PUBLIC "-//W3C//DTD SVG 1.1//EN" "http://www.w3.org/Graphics/SVG/1.1/DTD/svg11.dtd">
<svg version="1.1" id="Layer_2" xmlns="http://www.w3.org/2000/svg" xmlns:xlink="http://www.w3.org/1999/xlink" x="0px" y="0px"
	 viewBox="125 65 100 100" enable-background="new 125 65 100 100" xml:space="preserve">
<path id="IPHONE_2_" fill="#010101" d="M199.2,165h-48.3c-2.9,0-5.2-2.3-5.2-5.2V70.2c0-2.9,2.3-5.2,5.2-5.2h48.3
	c2.9,0,5.2,2.3,5.2,5.2v89.6C204.3,162.7,202,165,199.2,165z M175,159.8c1.9,0,3.5-1.5,3.5-3.4c0-1.9-1.5-3.5-3.5-3.5
	c-1.9,0-3.5,1.5-3.5,3.5C171.6,158.3,173.1,159.8,175,159.8z M199.2,75.4h-1.7h-44.8h-1.7v72.4h1.7h44.8h1.7L199.2,75.4L199.2,75.4z
	"/>
</svg>
