<?xml version="1.0" encoding="utf-8"?>
<!-- Generator: Adobe Illustrator 17.1.0, SVG Export Plug-In . SVG Version: 6.00 Build 0)  -->
<!DOCTYPE svg PUBLIC "-//W3C//DTD SVG 1.1//EN" "http://www.w3.org/Graphics/SVG/1.1/DTD/svg11.dtd">
<svg version="1.1" id="ROW_3" xmlns="http://www.w3.org/2000/svg" xmlns:xlink="http://www.w3.org/1999/xlink" x="0px" y="0px"
	 viewBox="125 65 100 100" enable-background="new 125 65 100 100" xml:space="preserve">
<path id="POLAROIDS_2_" d="M220.3,146.2h-15.7v-23.4h10.9V74.4h-56.2v4.7H150v-9.4c0-2.6,2.1-4.7,4.7-4.7h65.6
	c2.6,0,4.7,2.1,4.7,4.7v71.9C225,144.2,222.9,146.2,220.3,146.2z M200,88.5v71.8c0,2.6-2.1,4.7-4.7,4.7h-65.6
	c-2.6,0-4.7-2.1-4.7-4.7V88.5c0-2.6,2.1-4.7,4.7-4.7h65.6C197.9,83.8,200,85.9,200,88.5z M190.6,93.2h-56.2v48.4h56.2L190.6,93.2
	L190.6,93.2z"/>
</svg>
