<?xml version="1.0" encoding="utf-8"?>
<!-- Generator: Adobe Illustrator 17.1.0, SVG Export Plug-In . SVG Version: 6.00 Build 0)  -->
<!DOCTYPE svg PUBLIC "-//W3C//DTD SVG 1.1//EN" "http://www.w3.org/Graphics/SVG/1.1/DTD/svg11.dtd">
<svg version="1.1" id="ROW_14" xmlns="http://www.w3.org/2000/svg" xmlns:xlink="http://www.w3.org/1999/xlink" x="0px" y="0px"
	 viewBox="125 65 100 100" enable-background="new 125 65 100 100" xml:space="preserve">
<path id="SPEECH_BUBBLES_2_" d="M213.6,107.7c-1.6,0.9-1.8,8,7.2,12.3c0,0-12.8,2-21-8.2c-2,0.3-4.1,0.9-6.2,0.9
	c-17.4,0-28.1-10-28.1-22.6c0-12.6,10.6-22.8,28.1-22.8S225,77.5,225,90.1C225,97.2,220.8,103.6,213.6,107.7z M159.8,92.3
	c0.8,13.9,13.1,25.5,31.8,26.8c2.1,0.1,4.2-0.5,6.2-0.8l0,0l0.6-0.2c5.4,5.5,12.2,6.7,16.2,6.8c-3.9,15.2-19.1,26.4-41.8,26.4
	c-3.2,0-6.4-0.9-9.5-1.4c-12.4,15.7-31.9,12.6-31.9,12.6c13.8-6.6,13.6-17.3,11.1-18.8c-10.9-6.4-17.4-16.2-17.4-27
	c0-16.4,15.4-30.1,36.4-33.8C160.2,85.9,159.6,89.1,159.8,92.3z"/>
</svg>
