<?xml version="1.0" encoding="utf-8"?>
<!-- Generator: Adobe Illustrator 17.1.0, SVG Export Plug-In . SVG Version: 6.00 Build 0)  -->
<!DOCTYPE svg PUBLIC "-//W3C//DTD SVG 1.1//EN" "http://www.w3.org/Graphics/SVG/1.1/DTD/svg11.dtd">
<svg version="1.1" id="ROW_12" xmlns="http://www.w3.org/2000/svg" xmlns:xlink="http://www.w3.org/1999/xlink" x="0px" y="0px"
	 viewBox="125 65 100 100" enable-background="new 125 65 100 100" xml:space="preserve">
<g>
	<path d="M157.9,80.3c-15,0-27.2,12.2-27.2,27.2H125c0-18.1,14.7-32.9,32.9-32.9V80.3z"/>
	<path d="M157.9,86.5v5.6c-8.5,0-15.4,6.9-15.4,15.4h-5.7C136.8,95.9,146.3,86.5,157.9,86.5z"/>
	<path id="IMAC_1_" d="M221.3,149.7h-23.4H193v2l4.9,2.3v1.2h-21.6v-1.2l4.9-2.3v-2h-4.9h-23.4c-2,0-3.6-1.6-3.6-3.6v-44.2
		c0-2,1.6-3.6,3.6-3.6h68.4c2,0,3.6,1.6,3.6,3.6v44.3C225,148.1,223.4,149.7,221.3,149.7z M220.1,103.1h-65.9v41.5h65.9V103.1
		L220.1,103.1z"/>
</g>
</svg>
