<?xml version="1.0" encoding="utf-8"?>
<!-- Generator: Adobe Illustrator 17.1.0, SVG Export Plug-In . SVG Version: 6.00 Build 0)  -->
<!DOCTYPE svg PUBLIC "-//W3C//DTD SVG 1.1//EN" "http://www.w3.org/Graphics/SVG/1.1/DTD/svg11.dtd">
<svg version="1.1" id="ROW_2" xmlns="http://www.w3.org/2000/svg" xmlns:xlink="http://www.w3.org/1999/xlink" x="0px" y="0px"
	 viewBox="125 65 100 100" enable-background="new 125 65 100 100" xml:space="preserve">
<path id="CIRCLE__x2F__OK_2_" d="M175,165c-27.6,0-50-22.4-50-50s22.4-50,50-50s50,22.4,50,50S202.6,165,175,165z M175,74.4
	c-22.4,0-40.6,18.2-40.6,40.6c0,22.4,18.2,40.6,40.6,40.6s40.6-18.2,40.6-40.6S197.4,74.4,175,74.4z M197.1,105.8l-25,25l0,0
	c-0.8,0.8-2,1.3-3.3,1.3c-1.3,0-2.4-0.5-3.3-1.3l0,0l-14.1-14.1l0,0c-0.9-0.8-1.4-2-1.4-3.3c0-2.6,2.1-4.7,4.7-4.7
	c1.3,0,2.5,0.5,3.3,1.4l0,0l10.8,10.8l21.7-21.7l0,0c0.9-0.8,2-1.3,3.3-1.3c2.6,0,4.7,2.1,4.7,4.7
	C198.4,103.8,197.9,104.9,197.1,105.8L197.1,105.8z M196.9,97.8C196.9,97.8,196.9,97.8,196.9,97.8C196.9,97.8,196.9,97.8,196.9,97.8
	L196.9,97.8z M157.8,136.9L157.8,136.9L157.8,136.9L157.8,136.9z M192.2,136.9L192.2,136.9L192.2,136.9L192.2,136.9z M196.9,132.2
	L196.9,132.2C196.9,132.2,196.9,132.2,196.9,132.2L196.9,132.2z"/>
</svg>
