<?xml version="1.0" encoding="utf-8"?>
<!-- Generator: Adobe Illustrator 17.1.0, SVG Export Plug-In . SVG Version: 6.00 Build 0)  -->
<!DOCTYPE svg PUBLIC "-//W3C//DTD SVG 1.1//EN" "http://www.w3.org/Graphics/SVG/1.1/DTD/svg11.dtd">
<svg version="1.1" id="Layer_7" xmlns="http://www.w3.org/2000/svg" xmlns:xlink="http://www.w3.org/1999/xlink" x="0px" y="0px"
	 viewBox="125 65 100 100" enable-background="new 125 65 100 100" xml:space="preserve">
<path id="twitter_2_" fill="#010101" d="M193,74.4c7.9-0.1,12.2,2.8,16.2,6.4c3.4-0.3,7.9-2.2,10.5-3.5c0.9-0.5,1.7-0.9,2.6-1.4
	c-1.5,4.1-3.5,7.2-6.7,9.6c-0.7,0.5-1.4,1.3-2.3,1.6c0,0,0,0,0,0c4.5,0,8.1-2.1,11.6-3.1c0,0,0,0,0,0c-1.8,2.9-4.3,5.9-7,8
	c-1.1,0.9-2.1,1.7-3.2,2.5c0.1,4.7-0.1,9.2-1,13.2c-5.1,23.1-18.7,38.7-40.2,45.4c-7.7,2.4-20.2,3.4-29,1.2
	c-4.4-1.1-8.4-2.3-12.1-3.9c-2.1-0.9-4-1.9-5.8-3c-0.6-0.4-1.2-0.7-1.8-1.1c2,0.1,4.3,0.6,6.6,0.3c2-0.3,4-0.3,5.9-0.6
	c4.6-1,8.8-2.4,12.3-4.4c1.7-1,4.3-2.2,5.6-3.6c-2.3,0-4.4-0.5-6.1-1.1c-6.6-2.3-10.5-6.6-13-13.1c2,0.2,7.8,0.8,9.2-0.4
	c-2.5-0.1-5-1.6-6.7-2.7c-5.3-3.3-9.7-8.9-9.7-17.6c0.7,0.3,1.4,0.7,2.1,1c1.3,0.6,2.7,0.9,4.3,1.2c0.7,0.1,2,0.5,2.8,0.3
	c0,0-0.1,0-0.1,0c-1-1.2-2.7-2-3.8-3.3c-3.4-4.3-6.6-10.8-4.6-18.6c0.5-2,1.3-3.7,2.2-5.3c0,0,0.1,0,0.1,0c0.4,0.8,1.3,1.4,1.9,2.1
	c1.8,2.2,3.9,4.1,6.1,5.8c7.5,5.9,14.2,9.5,25.1,12.1c2.8,0.7,5.9,1.2,9.2,1.2c-0.9-2.7-0.6-7,0.1-9.6c1.8-6.5,5.8-11.3,11.6-13.8
	c1.4-0.6,2.9-1,4.6-1.4C191.4,74.6,192.2,74.5,193,74.4z"/>
</svg>
