<?xml version="1.0" encoding="utf-8"?>
<!-- Generator: Adobe Illustrator 17.1.0, SVG Export Plug-In . SVG Version: 6.00 Build 0)  -->
<!DOCTYPE svg PUBLIC "-//W3C//DTD SVG 1.1//EN" "http://www.w3.org/Graphics/SVG/1.1/DTD/svg11.dtd">
<svg version="1.1" id="Layer_1" xmlns="http://www.w3.org/2000/svg" xmlns:xlink="http://www.w3.org/1999/xlink" x="0px" y="0px"
	 viewBox="360 219.5 240 121" enable-background="new 360 219.5 240 121" xml:space="preserve">
<g>
	<path fill="#FFFFFF" d="M436.5,278.7c8.1-0.3,13.9-6.4,15.5-13.7c1.9-9-3.7-16.8-8-21.2c-4.3-4.4-8.1-7.9-9.5-10.9
		c-1.6-3.3-0.5-7.9,3.6-9c2.9-0.7,5,0.6,6.1,2.6c1.2,2.2,0.6,4.6,0.5,5.7c-0.2,1.1-0.2,1.2,0.4,1.4c0.6,0.2,5.9-1.8,5.7-6.5
		c-0.2-4.6-4.8-9-14.1-7c-9.2,1.8-12.9,9.7-11.4,15.9c1.7,6.9,10.8,13.8,13.2,16.2c2.4,2.3,7.8,7.1,7.4,13.2c-0.2,3.3-2.6,8.6-9,8.8
		c-4.1,0.1-8.1-2.9-7.4-7.8c0.8-4.9,5.9-6,7.7-5.1c0.3,0.1,0.5,0.1,0.6,0.1c0.2-0.1,0.2-0.3-0.1-0.9c-0.5-1.1-2.3-5.4-8.2-4.3
		c-6.3,1.1-8.1,7.2-7.8,10.5C421.9,273.6,428.1,279.1,436.5,278.7z"/>
	<path fill="#FFFFFF" d="M463.5,270.8c4,0.4,6.7-1.9,8.3-4.6c1.7-2.9,1.9-6.3,1.7-8.6c-0.5-3.9-2.6-8.9-7.6-9.5
		c-0.3,0-0.5,0.1-0.5,0.2c-0.1,0.1,0,0.3,0.2,0.5c0.4,0.4,3.1,3,3,9.8c-0.1,6.8-2.3,9.1-4.1,9.2c-1.8,0.1-4.3-4.3-2.6-12.8
		c1.8-8.5,7.8-10.3,9-10.7c0.2-0.1,0.4-0.3,0.1-0.9c-0.3-0.6-0.9-1.5-2.5-2.4c-2.9-1.7-11-2.1-14,10.2
		C452.3,261.1,455.5,270.1,463.5,270.8z"/>
	<path fill="#FFFFFF" d="M523,278.8c1-0.2,0.7-0.6,0.5-1.4c-0.3-0.6-1.1-1.8-2.7-2.9c-3-1.9-11.4-1.7-15.2,10.9
		c-3,9.4-0.3,20.2,8.1,21.3c4.2,0.6,7.1-1.8,9-4.4c1.8-3,2.4-6.5,2.2-9c-0.3-4.1-2.7-10.1-7.9-10.9l0,0
		C519.3,279.8,522.2,279,523,278.8z M516.6,283.4c0.3,0.5,3.3,3.5,3,10.6c-0.5,7.1-2.9,9.5-4.6,9.4c-1.8,0-4.3-4.8-2-13.6
		c0.7-3,2-5.3,3.5-6.9C516.4,283.1,516.5,283.2,516.6,283.4z"/>
	<path fill="#FFFFFF" d="M484.9,269.1c8.7,1.1,9-9.4,9-10.5c-0.1-1.1-0.6-0.8-1.5,0.6c-0.8,1.4-4,7.4-6.8,7c-2.9-0.5-3.8-7-2.9-13
		c1-6.7,3.7-12.2,5.8-11.7c2.1,0.5,1.8,7.1,1.8,8.1c0,0.5-0.1,0.8,0.3,0.9c0.6,0.1,2.2-0.6,2.9-4.1c0.6-3.4-0.4-6.6-4.8-8.5
		c-8.3-3.5-13,7.8-13.5,14.7C474.7,259.3,475.8,267.9,484.9,269.1z"/>
	<path fill="#FFFFFF" d="M498.4,239.4c2.1,1.8,7.8,0.3,8.6-3.6c0.5-2.1-0.6-5-1-5.1c-0.7,0-2.2,0.6-2.7,0.7
		c-1.6,0.7-4.3,1.9-5.4,3.9C497,237,497.3,238.5,498.4,239.4z"/>
	<path fill="#FFFFFF" d="M502,268.4c0.5,0,0.8-0.1,1.1-0.2c0.5-0.2,0.6-0.6,0.4-0.9c-0.4-0.6-2.2-4.7-2-10.5
		c0.2-5.8,1.9-10,2.2-10.7c0.3-0.7,0.7-1.5,0.4-1.7s-0.7-0.3-1.2-0.5c-3.3-0.8-8.4,0.8-8.3,11.6C494.6,267.7,500.8,268.4,502,268.4z
		"/>
	<path fill="#FFFFFF" d="M511.4,269c5.9,1.1,8.6-7.5,8.6-7.5s-0.4,1,0.8,4.9c1.5,4.5,4.5,5.5,6.9,4.2c1.8-0.9,2.6-2.2,2.3-2.6
		c-2.1-2.1-3.7-6.4-3.9-11.3c-0.2-4.9,0.6-9.2,0.6-9.6c0.2-0.7,0.2-1.5-3.3-1c-3.4,0.5-4.2,3.7-4.5,5.8c-0.2,1.7-0.3,3.5-0.5,5.2
		c-0.2,1.8-2,8.2-4.3,7.8c-1.8-0.3-2.6-5.5-0.8-11.7c2-7.2,6.2-9.4,6.9-9.7c1.4-0.5,1.8,0.1,1.9-0.2c0.5-0.6-1.4-2.7-1.8-3
		c-0.4-0.4-1.6-1.8-4.2-1.7c-4.4,0.4-9.7,6.7-11.1,15C503.8,262.2,506.9,268.3,511.4,269z"/>
	<path fill="#FFFFFF" d="M437,306.6c-2.1-2.1-3.6-4.8-4.3-10c-0.8-5.6,0.1-9,0.1-9.5c0.1-0.7-0.5-1.8-3.4-1c-3,0.7-3.8,3.5-4,5.3
		c-0.3,1.7-0.4,3.9-0.5,5.6c-0.1,1.8-1.6,8.4-3.9,8.1c-1.8-0.2-3.2-5.5-1.6-12.2c1.9-7.9,5.6-9.3,6.3-9.6c2-0.8,2.5,0.8,3,0.3
		c0.6-0.6-1.4-3.4-2.2-4.2c-0.7-0.6-1.9-1.8-4.5-1.6c-4.3,0.5-9.4,7.6-10.2,16.2c-0.8,8.5,2.5,14.5,6.9,15.2c5.8,0.9,8-7.8,8-7.8
		s0.4,2.3,1.3,4.5c1.2,2.8,3.5,4.3,6.6,3.2C435.9,308.7,437.4,307.2,437,306.6z"/>
	<path fill="#FFFFFF" d="M543.1,274.5c1.4-0.9,2.1-2,2.6-2.9c0.2-0.3,0.2-0.6,0.1-0.7c-0.2-0.3-0.6-0.5-0.8-0.6
		c-2.3-1.5-6.1-4.4-8-11.4c7.3-16.3,8.2-32.5,1.6-33c-6.4-0.6-9.9,17.1-8.6,31.2C531.8,276.8,540.6,276.1,543.1,274.5z M538.8,230.2
		c1.6-0.1,1.3,4.3,0.6,10.4c-0.6,4.7-2.3,11-3.3,14C534.8,245.3,536.5,230.4,538.8,230.2z"/>
	<g>
		<path fill="#FFFFFF" d="M383.7,288.7c0.6-15.1-2.1-17.5-5.8-19.1c-1.3-0.6-3-0.7-3.9-0.7c-0.5,0-0.8,0.2-0.9,0.4
			c-0.2,0.2-0.2,0.6,0,1.2c0.4,1.2,0.8,1.9,1.1,5.1c0.3,2.6,0.3,8,0.4,14.5c0.3,5.2,0.2,11.3,1.1,16.9c2.2,13.7,10.3,14.6,11.4,14.4
			c0.6-0.1,0.9-0.6,0.3-1.4C384.3,316.7,383.2,304.6,383.7,288.7z"/>
		<path fill="#FFFFFF" d="M386.9,256.4c-6.3-1.1-14.5,2.9-20.2,10.3c-5.2,6.7-6.8,12.7-6.6,19.6c0.2,6.3,3.3,13,8,12.5
			c2.1-0.4,2.8-1.8,2.8-2.1c-0.1-0.6-0.1-0.1-0.8-1.1c-2.1-2.9-6.7-17,1.3-28c3.2-4.1,8-6.3,12.4-4.7c4,1.4,6.2,6.3,6.2,12.2
			c0,4.2-0.8,7.9-2.7,11.9c-1.5,3.3-2.9,3.9-2.3,4.5c0.4,0.4,10.2-3.6,12.2-15.8C399,263.5,393.2,257.5,386.9,256.4z"/>
	</g>
	<path fill="#FFFFFF" d="M405.6,293.1c3.1-3.3,5.5-8.5,7.3-15.3c4.1-16.5,0.6-23.1-3.6-23.2c-5-0.1-9.7,9.8-10.9,27.9
		c-0.3,5.6-0.2,10.2,0.2,13.9c-1.4,1.1-2.1,1.6-3.1,1.9c-0.6,0.2-0.9,0.2-1,0.4c-0.1,0.3,0.4,0.7,1.4,0.7c0.6,0,1.9-0.4,3-1
		c1.8,15.5,8.2,14.7,10.4,13.9c1.4-0.5,2.3-1.3,2.4-1.9c0.1-0.4,0-0.5-0.5-0.8C408.4,306.6,406.5,301.7,405.6,293.1z M408.9,259.4
		c2.1,0.1,2,8.2,0.7,16.7c-0.9,5.4-2.7,10.7-4.3,13.5c-0.2-2.2-0.3-4.6-0.3-7.3C404.7,267.6,406.6,259.3,408.9,259.4z"/>
	<path fill="#FFFFFF" d="M456,275.4c-1.8-1.5-5.5-0.6-6.5-0.2c-0.9,0.5-1.4,0.8-0.9,1.5c0.5,0.6,2.4,3.7,2.1,12.9
		c-0.3,9.3-2.5,13.9-4.7,13.8c-2.4-0.2-2.9-6.5-2.5-10.8c0.8-7.9-1.4-9.5-3.9-10.2c-1.9-0.5-3.9-0.3-4.2,0.3
		c-0.2,0.5,0.3,0.7,0.6,1.9c0.3,1,0.3,4,0.2,9.5s1.9,13,8.2,12.7s7.9-9.7,7.9-9.7c1.8,17.4-5,30.7-11,30.5c-4.6-0.2-4.6-5.6-4.3-7.1
		c0.1-0.6,0.5-0.8,0.3-1c-0.1-0.1-0.4-0.2-0.8,0c-2.2,0.8-3.6,3-3.1,5.9c0.4,2.3,2.8,6.3,9,5.1c8.2-1.4,15.9-14.2,16.6-33.4
		C459.8,278,457.5,276.6,456,275.4z"/>
	<path fill="#FFFFFF" d="M489.2,317.4c-0.3,1.3-0.6,2-0.6,2c31.2-10.9,57.1-2.8,62.2-1c5.4,1.8,5.7,3.3,6.3,3.2
		c0.6-0.2,1-1.6,0.6-2.5c-0.5-1.3-2.3-1.7-2.4-2.4c-0.1-1-0.6-2.5-2.7-3.2c-4.9-1.8-17.2-4.2-28.6-3.9c-8.7,0.3-20,1-34.4,6.2
		C489.6,315.7,489.5,316.3,489.2,317.4z M487.8,316.5c0.4-3.6-0.5-6.4-1.2-7.8c-1.9-4.1-5.4-6.6-9.4-7.3c4-1.8,5.7-6.1,6.1-9
		c0.4-3.6-0.7-8.1-3.7-10.8c-2.5-2.3-4.4-2.3-5.1-2.2c2.8-2.4,5.6-3.2,6.4-3.3c0.5,0,1-0.1,1.3-0.4c0.3-0.5-0.1-1.8-1.6-3.1
		c-1.5-1.4-3-1.9-5.8-1.9c-3,0.1-9.7,3-12,12.2c-2.4,9.6,0.8,17.4,7.5,19c-0.6,0.2-1.3,0.5-1.9,0.7c-6.7,3-7.2,7.6-6.6,9.2
		c0.6,2,1.5,3.5,2.2,3.5c1,0,0.4-1.7,3.8-4.6c3.4-2.9,7.2-3,9.4-2.1c1.8,0.6,5.4,3,4.6,10.4c-17,7.4-23.3,15.7-21.9,19.5
		c1.1,3,7.2,2.4,12.6-0.5c3.7-1.8,8.9-5.4,12.6-12.6c1-1.9,1.7-3.8,2.1-5.4C487.6,318.8,487.8,316.8,487.8,316.5z M470.6,284.8
		c0.9-2.3,2.3-4.1,3.7-5.4c0.1,0.3,0.5,0.7,1.1,1.6c0.8,1.2,3,5.2,2.1,10.7c-0.8,5.2-3.1,7.7-5.4,7.2
		C469.6,298.2,468,291.6,470.6,284.8z M475,332.4c-4.2,3.9-8.2,4.9-9,3.9c-1.3-1.6,3-7.8,15.2-13.8C480,326.7,477.7,330,475,332.4z"
		/>
	<path fill="#FFFFFF" d="M490.5,275c-3-1.7-5.1-1.2-5.5-0.9c-0.5,0.4-0.2,0.8,0.1,1.6c0.3,0.7,1.3,3.1,1.3,8
		c-0.1,4.9-0.6,13.4,0.2,16.1c0.8,2.7,2.7,6.2,6.9,4.9c0.9-0.5,0.6-0.6,0.4-2.2c-0.1-1.4-1.7-16.3,6.5-24.9c0,0.1-0.9,3-0.9,6.1
		c0,3.1,2.3,6.2,3.5,5.7c0.7-0.5-0.1-0.1,0.1-2.1c0.2-1.9,0.5-4.5,2.6-8.1c1.4-2.4,2.8-3.7,3.5-4.5c0.5-0.6,0.7-0.9,0.6-1.2
		c-0.1-0.3-0.2-0.6-0.6-1c-0.7-1.1-2.5-2.5-5.5-2.3c-4.2,0.3-8.8,8.2-9.9,14.2C493.8,284.2,494.7,277.4,490.5,275z"/>
	<path fill="#FFFFFF" d="M541.2,284.1c-0.9,6.9-0.5,12-0.5,12s-1.7,5.8-4.2,5.4c-1.8-0.4-2.7-2.9-2-10.3c0.6-7,0.6-13.4-6.6-13.7
		c-0.3,0-0.6,0.1-0.6,0.3c-0.1,0.2-0.1,0.4,0.1,0.6c0.3,0.5,0.6,2.2,0.4,5.7c-0.3,3.9-3.6,21.4,5.2,22.2c4.1,0.4,6.6-2.9,8.3-5.7
		c0,0.1,0.5,6.6,5.4,6.7c1.3,0,2-0.2,2.4-0.6c0.5-0.4,0.4-0.8,0.3-0.9c-0.2-0.2-2.3-1.1-1.6-10.9c0.7-9.8,2.6-16.2,3.1-17.4
		c0.2-0.5-0.7-1-2.7-1.4C546.1,276,542,277.2,541.2,284.1z"/>
	<path fill="#FFFFFF" d="M570.4,298.8c0.7-6.1,3.8-13.8,4.9-16c0.5-1,0.2-1.7-2.1-3.5c-1.8-1.5-4.1-1.1-5.8,0.3
		c-6.1,4.9-9.1,13.2-9.2,13.2c-0.1-3,1.2-9,1.4-10c0.2-0.9,0.3-1.4-0.1-1.7c-0.6-0.5-5.9-0.9-6.8,3.8c-1.1,6.5-1.6,13.1-1,17.4
		c0.7,6.5,5.4,6.6,5.9,6.6c0.5-0.1,0.9-0.1,1-0.5c0.2-0.6-0.6-4.2,0.2-9.1c1.5-8.9,7.6-13.9,7.7-13.9c-1.9,5.5-3,13.8-1.8,18.8
		c1.2,5.2,4.6,4.5,5.5,4.1c0.8-0.5,1.4-1.1,1-1.4C570.8,306.7,569.8,304.4,570.4,298.8z"/>
	<path fill="#FFFFFF" d="M599.2,314.4c-0.7,0.5-1.9,0.6-3.5-0.8c-1.6-1.3-3.1-6.7-3.3-12.6c1.4-3.2,2.5-6.7,3.3-9.9
		c2.1-8.2,5-26.3-1.4-27.8c-5.6-1.3-7,11.7-7.6,23c-0.5-0.6-1-1-1.8-1.5c-3-1.6-9,1.8-10.8,11.4c-1.6,9,0.5,16.2,5.2,17.3
		c3,0.6,5.4-0.7,7.6-3.8c1.2,8.3,3.8,10.2,6.5,10.3c4,0.4,6.6-5,6.6-5.4C600.1,314.4,599.8,314.1,599.2,314.4z M594.4,267.7
		c1.8,0.2,1,11.5-1.1,22.4c-0.6,2.7-0.8,3.4-1.3,5c-0.1-2.5-0.2-3.2-0.2-5.2C591.6,282.3,592.5,267.6,594.4,267.7z M582.4,310.1
		c-1.5-0.5-3.5-3-1.8-11.1c1.3-6.3,4.6-9.2,5.9-9.5c0,0.6-0.1,1.2-0.1,1.8c-0.3,6.6-0.2,11.4,0.2,15.3
		C585.3,309.1,583.7,310.5,582.4,310.1z"/>
</g>
</svg>
