<?xml version="1.0" encoding="utf-8"?>
<!-- Generator: Adobe Illustrator 17.1.0, SVG Export Plug-In . SVG Version: 6.00 Build 0)  -->
<!DOCTYPE svg PUBLIC "-//W3C//DTD SVG 1.1//EN" "http://www.w3.org/Graphics/SVG/1.1/DTD/svg11.dtd">
<svg version="1.1" id="Layer_1" xmlns="http://www.w3.org/2000/svg" xmlns:xlink="http://www.w3.org/1999/xlink" x="0px" y="0px"
	 viewBox="0 0 350 230" enable-background="new 0 0 350 230" xml:space="preserve">
<g>
	<path fill="#B3B3B3" d="M259.8,96.4c1.6,0,2.9-0.1,4.3,0.1c0.4,0,0.9,0.7,1.1,1.1c2.1,5.5,4.1,11,6.1,16.5c0.2,0.5,0.4,1,0.8,1.5
		c0-6.3,0-12.6,0-19c1.9,0,3.7,0,5.6,0c0,12.3,0,24.7,0,37.3c-1.4,0-2.9,0.1-4.3-0.1c-0.3,0-0.7-0.7-0.9-1.1
		c-2.1-5.6-4.1-11.3-6.2-16.9c-0.2-0.5-0.4-1-0.8-1.4c0,6.4,0,12.9,0,19.4c-3.5,0-6.9,0-10.4,0c-0.4-2.2-0.8-4.3-1.1-6.5
		c-0.1-1.1-0.4-1.6-1.6-1.5c-1.5,0.1-3,0-4.6,0c-0.5,2.7-1,5.2-1.5,7.9c-1.8,0-3.6,0-5.6,0c2.4-12.5,4.7-24.9,7.1-37.5
		c2,0,3.9,0,6,0c2,10.5,4,21,6,31.5c0.1,0,0.2,0,0.2,0C259.8,117.4,259.8,107,259.8,96.4z M250.7,109.2c-0.1,0-0.2,0-0.2,0
		c-0.6,3.7-1.3,7.3-2,11.1c1.5,0,2.8,0,4.2,0C252,116.5,251.4,112.8,250.7,109.2z"/>
	<path fill="#B3B3B3" d="M183.4,110.7c-2.1,4.8-6,6.6-11.1,6.7c0,5.3,0,10.5,0,15.8c-2,0-3.9,0-5.9,0c0-12.4,0-24.8,0-37.3
		c3.9,0.1,7.8-0.5,11.5,1.2c4.3,2,6,5.5,5.8,10.3c0.7-1.9,1.3-3.6,2-5.2c2-4.4,5.8-6.4,9.9-5.3c2.4,0.6,4.1,2.3,5.3,4.4
		c1.6,2.9,2.5,6,2.9,9.3c0.6,5.3,0.6,10.7-1.2,15.8c-0.7,2.1-1.8,4.2-3.3,5.8c-3.4,4-8.8,3.8-12.1-0.3c-2.4-3-3.6-6.6-3.9-10.4
		C183.2,117.8,183.4,114.2,183.4,110.7z M189.1,114.7c0.2,3.1,0.1,5.2,0.5,7.3c0.4,2.1,1,4.3,2,6.2s3,1.8,4.1,0
		c0.5-0.8,0.9-1.7,1.2-2.7c1.5-5.4,1.5-10.8,0.7-16.3c-0.3-2.1-1.1-4.2-2.1-6s-2.9-1.6-4,0.1c-0.6,0.9-1.1,1.9-1.2,2.9
		C189.7,109.4,189.3,112.5,189.1,114.7z M172.3,111.7c3.4,0.4,5.4-1.5,5.5-5.1c0.1-3.7-1.7-5.5-5.5-5.3
		C172.3,104.8,172.3,108.3,172.3,111.7z"/>
	<path fill="#B3B3B3" d="M89.3,127c0,1-0.1,1.6,0,2.2c0.3,1.7-0.6,2.5-2,3.1c-4.8,2.3-9.4,1-12.1-3.6c-2-3.5-2.6-7.4-2.8-11.3
		c-0.3-5.3,0-10.6,1.9-15.6c1.3-3.3,3.3-5.9,7-6.6c2.6-0.5,4.8,0.4,6.9,1.7c0.2,0.1,0.4,0.5,0.4,0.7c0,1.6,0,3.2,0,4.9
		c-1.3-0.6-2.5-1.2-3.7-1.7c-2.3-0.8-4.1-0.2-4.9,2.1c-0.8,2.3-1.3,4.8-1.5,7.3c-0.4,4.4-0.3,8.9,0.7,13.3c0.2,0.9,0.6,1.8,1,2.6
		c0.9,1.7,2.7,2.3,4.5,1.7c0.3-0.1,0.6-0.2,1-0.4c3-1.3,2.9-1.3,2.3-4.4c-1.5-7.4-1.5-14.8,1.6-21.9c0.6-1.4,1.6-2.9,2.7-4
		c3.5-3.3,8.8-2.7,11.8,1.3c2.3,3.1,3.3,6.7,3.7,10.5c0.6,5.3,0.7,10.7-1.1,15.8c-0.8,2.2-2,4.3-3.5,6c-3.3,3.8-8.5,3.5-11.7-0.4
		C90.9,129.5,90.2,128.4,89.3,127z M93.3,113.3c0.2,3,0.2,5.1,0.5,7.1s0.8,3.9,1.6,5.7c0.4,0.8,1.5,1.6,2.4,1.8
		c1.2,0.3,1.9-0.8,2.4-1.8c0.4-0.7,0.7-1.4,0.9-2.2c1.5-5.4,1.5-10.8,0.6-16.3c-0.3-2-1-4.1-2-5.9c-1.1-1.9-3.1-1.8-4.2,0.1
		c-0.5,0.9-1,1.8-1.1,2.8C93.9,107.9,93.5,111.1,93.3,113.3z"/>
	<path fill="#B3B3B3" d="M128.5,133.2c-1.9,0-3.7,0-5.6,0c0-12.4,0-24.8,0-37.4c1.5,0,3-0.1,4.4,0.1c0.3,0,0.8,0.7,0.9,1.1
		c1.6,3.9,3.1,7.9,4.7,12.1c1-2.5,1.8-4.7,2.7-6.9c0.7-1.8,1.4-3.7,2.2-5.5c0.2-0.4,0.9-0.9,1.3-0.9c1.3-0.1,2.6,0,4,0
		c0,12.5,0,24.9,0,37.3c-1.9,0-3.7,0-5.6,0c0-7.9,0-15.8,0-23.6c-0.1,0-0.1-0.1-0.2-0.1c-0.5,1.2-0.9,2.5-1.4,3.7
		c-0.6,1.6-1.2,3.2-1.9,4.8c-0.2,0.4-0.7,0.8-1.1,0.8c-0.4,0-1-0.4-1.1-0.8c-1.1-2.7-2.2-5.5-3.4-8.2
		C128.5,117.5,128.5,125.3,128.5,133.2z"/>
	<path fill="#B3B3B3" d="M143.9,114.2c0.1-4.7,0.7-9.2,2.7-13.4c2-4.5,5.8-6.6,10-5.5c2.4,0.6,4.1,2.3,5.3,4.4
		c1.7,2.9,2.6,6.1,3,9.4c0.6,5.3,0.6,10.6-1.2,15.7c-0.8,2.2-2,4.4-3.6,6.1c-3.3,3.7-8.5,3.4-11.7-0.5c-2.5-3-3.6-6.6-4-10.4
		C144.1,118.2,144,116.2,143.9,114.2z M159.2,115c-0.3-3.2-0.3-5.8-0.8-8.2c-0.4-1.8-1.1-3.6-2.1-5.2c-0.9-1.5-2.7-1.4-3.7,0.1
		c-0.6,1-1.1,2.1-1.4,3.2c-1.3,5.5-1.3,11.1-0.4,16.6c0.3,1.8,1,3.7,1.9,5.3c1,1.8,2.9,1.6,4-0.1c0.5-0.8,1-1.7,1.2-2.6
		C158.3,120.8,158.8,117.5,159.2,115z"/>
	<path fill="#B3B3B3" d="M108.5,126.6c1.2,0.6,2.1,1.1,3.2,1.5c3,1.1,5.2-0.8,4.5-3.9c-0.5-1.8-1.3-3.6-2.1-5.3
		c-1.9-4-4.5-7.7-5.4-12.1c-0.7-3.6-0.3-7.1,2.8-9.6c2.8-2.4,6.2-2.1,9.1-0.8c0.3,0.1,0.5,0.6,0.5,0.9c0.1,1.5,0,2.9,0,4.5
		c-1.2-0.3-2.2-0.7-3.3-0.9c-2.4-0.5-4,1-3.6,3.4c0.2,1.4,0.7,2.9,1.3,4.2c1.4,3,3,5.8,4.5,8.7c1.7,3.4,2.9,7,1.7,10.9
		c-1.8,6-8.1,7.1-12.6,4.4c-0.3-0.2-0.5-0.6-0.5-0.9C108.5,129.9,108.5,128.3,108.5,126.6z"/>
	<path fill="#B3B3B3" d="M232.3,102.2c-2,0-3.8,0-5.7,0c0-1.8,0-3.5,0-5.3c5.7,0,11.4,0,17.2,0c0,1.7,0,3.3,0,5.2
		c-1.8,0-3.6,0-5.5,0c0,10.8,0,21.3,0,32c-2,0-3.9,0-6,0C232.3,123.5,232.3,112.9,232.3,102.2z"/>
	<path fill="#B3B3B3" d="M210.6,96.5c0,10.6,0,21.1,0,31.8c3.1,0,6.1,0,9.2,0c0,1.9,0,3.6,0,5.4c-5,0-10,0-15.1,0
		c0-12.4,0-24.7,0-37.2C206.6,96.5,208.5,96.5,210.6,96.5z"/>
	<path fill="#B3B3B3" d="M225.9,134.1c-1.9,0-3.8,0-5.7,0c0-12.4,0-24.8,0-37.3c1.9,0,3.8,0,5.7,0
		C225.9,109.2,225.9,121.6,225.9,134.1z"/>
</g>
</svg>
