<?xml version="1.0" encoding="utf-8"?>
<!-- Generator: Adobe Illustrator 17.1.0, SVG Export Plug-In . SVG Version: 6.00 Build 0)  -->
<!DOCTYPE svg PUBLIC "-//W3C//DTD SVG 1.1//EN" "http://www.w3.org/Graphics/SVG/1.1/DTD/svg11.dtd">
<svg version="1.1" id="Layer_1" xmlns="http://www.w3.org/2000/svg" xmlns:xlink="http://www.w3.org/1999/xlink" x="0px" y="0px"
	 viewBox="0 0 350 230" enable-background="new 0 0 350 230" xml:space="preserve">
<g>
	<path fill="#B3B3B3" d="M129.9,139.7c-1.7-0.6-3.9-0.9-5.2-1.2c-0.7-0.2-1.1-0.4-1.1-0.8c0-0.4,0.5-0.8,1.5-0.8
		c0.8,0,1.4,0.3,1.4,1.1h5.8c0-3-3.1-4.1-7.1-4.1c-4.8,0-7.5,1.5-7.5,4.3c0,1.7,0.9,2.9,3.4,3.5l4.6,1.1c0.6,0.1,1.1,0.4,1.1,0.9
		c0,0.6-0.6,1.1-1.6,1.1c-0.6,0-1-0.2-1.3-0.4c-0.3-0.3-0.3-0.6-0.3-1h-6.2c0,3.4,3.6,4.4,7.6,4.4c4.6,0,7.9-1.3,7.9-4.5
		C132.9,141.6,132,140.4,129.9,139.7z"/>
	<path fill="#B3B3B3" d="M147.4,134.3h-9.5v13.1h6.5V143h2.1c4.6,0,6.7-1.8,6.7-4.4C153.2,136.1,151.4,134.3,147.4,134.3 M144.7,140
		h-0.3v-2.7h0.7c1.4,0,2,0.4,2,1.3C147,139.5,146.4,140,144.7,140z"/>
	<path fill="#B3B3B3" d="M166,133.9c-5.6,0-8.5,2.8-8.5,6.9s2.8,6.9,8.5,6.9c5.6,0,8.5-2.8,8.5-6.9S171.6,133.9,166,133.9
		 M166,144.3c-1,0-1.7-0.5-1.7-3.5s0.7-3.5,1.7-3.5s1.7,0.5,1.7,3.5C167.7,143.9,166.9,144.3,166,144.3z"/>
	<path fill="#B3B3B3" d="M191.5,140.8L191.5,140.8c2.4-0.5,3.2-1.6,3.2-3.2c0-2.5-2.1-3.3-5.6-3.3h-9.7v13.1h6.3v-4.7h0.7
		c1,0,1.5,0.3,1.6,0.9c0.2,1.1,0.4,2.8,0.8,3.8h6.3c-0.7-2-0.7-3.8-1.1-4.9C194,141.4,193.1,140.9,191.5,140.8 M186.4,139.7h-0.5
		v-2.5h0.6c1.3,0,2.1,0.2,2.1,1.2S187.7,139.7,186.4,139.7z"/>
	<polygon fill="#B3B3B3" points="199,137.8 203,137.8 203,147.4 209.5,147.4 209.5,137.8 213.5,137.8 213.5,134.3 199,134.3 	"/>
	<path fill="#B3B3B3" d="M230,139.7c-1.6-0.6-3.9-0.9-5.2-1.2c-0.7-0.2-1.1-0.4-1.1-0.8c0-0.4,0.5-0.8,1.5-0.8
		c0.8,0,1.4,0.3,1.4,1.1h5.8c0-3-3.1-4.1-7.1-4.1c-4.8,0-7.5,1.5-7.5,4.3c0,1.7,0.9,2.9,3.4,3.5l4.6,1.1c0.6,0.1,1.1,0.4,1.1,0.9
		c0,0.6-0.6,1.1-1.6,1.1c-0.6,0-1-0.2-1.3-0.4c-0.3-0.3-0.3-0.6-0.3-1h-6.2c0,3.4,3.6,4.4,7.6,4.4c4.6,0,7.9-1.3,7.9-4.5
		C232.9,141.6,232,140.4,230,139.7z"/>
	<polygon fill="#B3B3B3" points="118.8,130.9 118.8,81.9 148.3,81.9 149.3,95.3 132.7,95.3 132.7,101.7 146.2,101.7 146.2,115.1 
		132.6,115.1 132.6,130.9 	"/>
	<polygon fill="#B3B3B3" points="232.9,130.9 218.2,105.4 231.6,82 216.8,82 210.7,92.6 204.7,82 189.4,82 203,105.6 188.6,130.9 
		203.4,130.9 210.5,118.5 217.7,130.9 	"/>
	<path fill="#B3B3B3" d="M148.9,106.5c0-13.2,10.5-23.8,23.3-23.8s23.4,10.7,23.4,23.8c0,13.2-10.5,23.8-23.4,23.8
		S148.9,119.6,148.9,106.5 M176.4,116.3V96.7c0-2.2-1.9-4.2-4.1-4.2c-2.2,0-4,2-4,4.2v19.5c0,2.2,1.8,4,4,4
		C174.5,120.3,176.4,118.5,176.4,116.3z"/>
	<path fill="#B3B3B3" d="M256.5,117.6c-1.8,26.8-36.6,48.3-79.7,48.8v6.1c51.5-0.5,93.2-24.7,95.5-54.9H256.5z"/>
	<path fill="#B3B3B3" d="M173.2,166.4c-42.8-0.7-77.5-22-79.3-48.8H77.7c2.3,30.2,44,54.3,95.4,54.9L173.2,166.4L173.2,166.4z"/>
	<path fill="#B3B3B3" d="M173.2,57.5c-52.4,0.6-94.6,25.6-95.5,56.5h16.2c1.2-27.1,36.1-48.8,79.3-49.5V57.5L173.2,57.5z"/>
	<path fill="#B3B3B3" d="M176.8,57.5v7c43.4,0.5,78.5,22.4,79.7,49.5h15.9C271.4,83,229.2,58.1,176.8,57.5z"/>
	<polygon fill="#B3B3B3" points="250.4,161.4 249.1,161.4 249.1,156.6 247.4,156.6 247.4,155.6 252.1,155.6 252.1,156.6 
		250.4,156.6 	"/>
	<polygon fill="#B3B3B3" points="258.3,161.4 257.2,161.4 257.2,156.5 257.2,156.5 256.1,161.4 254.9,161.4 253.9,156.5 
		253.9,156.5 253.9,161.4 252.8,161.4 252.8,155.6 254.5,155.6 255.6,160.1 255.6,160.1 256.6,155.6 258.3,155.6 	"/>
</g>
</svg>
