<?xml version="1.0" encoding="utf-8"?>
<!-- Generator: Adobe Illustrator 17.1.0, SVG Export Plug-In . SVG Version: 6.00 Build 0)  -->
<!DOCTYPE svg PUBLIC "-//W3C//DTD SVG 1.1//EN" "http://www.w3.org/Graphics/SVG/1.1/DTD/svg11.dtd">
<svg version="1.1" id="Layer_1" xmlns="http://www.w3.org/2000/svg" xmlns:xlink="http://www.w3.org/1999/xlink" x="0px" y="0px"
	 viewBox="0 0 350 230" enable-background="new 0 0 350 230" xml:space="preserve">
<g>
	<path fill="#B3B3B3" d="M97.2,122.5c-0.1,1.8-0.3,3.5-0.4,5.2c0,0.4,0.2,0.9,0.1,1.3c-0.1,0.5-0.3,0.9-0.5,1.3
		c-0.4-0.3-1-0.5-1.1-0.9c-0.6-1.6-1.2-3.1-2.7-4.1c-2.4-1.5-4.9-1.9-7.6-1.2c-5.4,1.5-8.1,5.4-8.8,10.6c-0.5,3.6,0.2,6.8,1.9,9.9
		c1.4,2.6,3.7,4.2,6.4,5.4c3.2,1.4,6.1,0.7,8.7-1.2c1.1-0.8,1.8-2.3,2.8-3.5c0.3,0.1,0.9,0.1,0.6,1.1c-0.4,1.1-0.3,2.3-0.5,3.5
		c0.1,0.1,0.3,0.2,0.4,0.3c0.4-0.5,1.1-0.9,1.3-1.5c1.5-3.5,2.9-7.1,4.4-10.6c1.8-4.3,3.7-8.6,5.5-12.8c0.2-0.4,0.4-0.9,0.5-1.3
		c0.3-1.1,0.8-1.5,2-1.5s1.7,0.4,2.1,1.5c2.3,7.7,4.7,15.3,7.1,22.9c0.2,0.7,0.4,1.4,0.9,1.9c0.4,0.5,1.2,0.9,1.7,0.9
		c0.7-0.1,1.1-0.8,1.1-1.7c0-7.1,0-14.2,0-21.3c0-1.6-0.9-2.6-2.5-2.9c-0.6-0.1-1.8,0.4-1.6-0.8c0.2-1.2,1.2-0.5,1.9-0.5
		c0.7,0,1.5,0,2.2,0c3.9,0,7.8,0,11.6,0c3.9,0,7,3.2,7.2,7.1c0.2,3.6-1.7,5.7-4.4,7.4c-0.7,0.5-1.5,0.9-2.3,1.5
		c2,2.4,3.9,4.8,5.9,7.2c0.7,0.9,1.5,1.8,2.3,2.7s1.8,1.6,3.1,1.2c1.2-0.4,1.4-1.5,1.4-2.7c0-6.4,0-12.8,0-19.2
		c0-2.2-0.9-3.3-3.1-3.4c-0.9-0.1-1.2-0.3-1-1.4c3.8,0,7.7,0,11.7,0c0,0.5,0.3,1.3-0.8,1.4c-1.9,0.2-2.6,1-2.6,3
		c0,6.8,0,13.7,0,20.5c0,0.5,0.1,0.9,0.3,1.4c0.3,0.9,0.9,1.3,1.9,1.4c0.4,0,1.2,0.5,1.2,0.8c0.1,0.7-0.6,0.7-1.2,0.7
		c-3.7,0-7.3-0.2-11,0.1c-2.3,0.2-3.6-1-4.8-2.5c-2.5-3.2-4.9-6.5-7.4-9.7c-0.3-0.4-1-0.3-1.5-0.6c-0.4-0.2-0.8-0.5-1.2-0.8
		c0.3-0.4,0.6-0.9,1-1c1.1-0.3,2.2-0.3,3.3-0.5c3-0.6,5.1-3.1,4.9-6.2c-0.1-0.8,0-1.7-0.1-2.5c-0.6-3.1-3-4-5.4-4.2
		c-1-0.1-2,0.1-3,0.2c-1.1,0.1-1.5,0.9-1.5,1.8c0,7.4,0,14.7,0,22.1c0,1.2,1,2.2,2.4,2.3c0.2,0,0.5-0.1,0.6,0c0.4,0.3,0.8,0.6,1.2,1
		c-0.4,0.2-0.8,0.6-1.1,0.6c-5.2,0-10.4,0-15.6,0c-1.1,0-2.1,0-3.1,0c-0.4-1.3-0.3-1.6,1-1.6c2.2,0.1,3.3-0.9,2.5-3.3
		c-0.7-2-1.3-4.1-1.9-6.2c-2.9,0-5.8,0-8.6,0c-0.4,0-0.9,0.5-1.1,0.9c-0.8,1.8-1.5,3.7-2.3,5.5c-0.6,1.6-0.2,2.5,1.5,2.9
		c0.3,0.1,0.7,0,1,0.1c0.5,0.2,0.9,0.4,1.3,0.7c-0.5,0.3-0.9,0.8-1.4,0.9c-2.2,0.1-4.5,0-6.7,0.1c-3.5,0.1-7.1,0.5-10.6,0.5
		c-3.1,0-6-0.8-8.6-2.6c-3.5-2.5-5.6-5.8-6-10.2c-0.4-3.6,0.2-6.9,1.8-10.1c1.6-3.1,4.2-5.2,7.5-6.4c3.6-1.4,7.3-1.6,11.2-1.1
		C94,122.3,95.6,122.4,97.2,122.5z M109.3,127.6c-1.5,3.7-2.9,7.3-4.3,10.8c2.6,0,5,0,7.4,0C111.4,134.9,110.4,131.4,109.3,127.6z"
		/>
	<path fill="#B3B3B3" d="M271.5,144.7c0-0.4,0.1-0.8,0.1-1.2c0-5.2,0-10.3,0-15.5c0-2.7-0.5-3.6-3.6-4c-0.3,0-0.6-0.5-0.9-0.8
		c0.3-0.2,0.6-0.7,0.9-0.7c3.1,0,6.3,0,9.4,0c0.3,0,0.5,0.4,0.8,0.6c-0.2,0.3-0.4,0.7-0.7,0.9c-0.4,0.2-0.9,0-1.3,0.2
		c-1.7,0.5-2.5,1.7-2.5,3.5c0,7.6,0,15.2,0,22.9c0,0.5,0,1,0,1.4c-1.8,0.8-2.6-0.5-3.4-1.5c-3.4-4.3-6.7-8.6-10.1-12.9
		c-2.3-3-4.7-6-7-9c-0.2-0.3-0.4-0.6-0.6-1c-0.1,0.1-0.2,0.2-0.4,0.2c0,0.3,0,0.6,0,0.9c0,6.3,0,12.5,0,18.8c0,2.1,1,3,3.1,3.2
		c0.4,0,0.7,0.3,1,0.5c-0.3,0.3-0.6,0.7-1,1c-0.1,0.1-0.4,0-0.6,0c-5.5,0-11,0-16.5,0c-0.2,0-0.4,0.1-0.5,0
		c-0.3-0.2-0.7-0.5-0.7-0.7c0-0.3,0.3-0.7,0.6-0.8c0.4-0.1,0.9-0.1,1.3-0.1c1-0.1,1.5-0.8,1.2-1.7c-0.6-2.2-1.3-4.4-1.9-6.6
		c-0.2-0.6-0.4-1-1.1-1c-2.6,0-5.3,0-8.1,0c-0.9,2.2-1.9,4.3-2.7,6.5c-0.5,1.4,0.4,2.5,2,2.7c0.3,0,0.8-0.1,1,0
		c0.3,0.2,0.6,0.6,0.8,0.9c-0.3,0.2-0.6,0.5-0.9,0.7c-0.1,0.1-0.3,0-0.4,0c-8.7,0-17.4,0-26,0c-0.3,0-0.7,0.1-0.9-0.1
		c-0.2-0.2-0.5-0.6-0.5-0.8c0.1-0.3,0.4-0.6,0.7-0.7c0.4-0.2,1-0.1,1.4-0.2c1.1-0.5,1.6-1.3,1.6-2.7c-0.1-7,0-13.9,0-20.9
		c0-2-0.8-2.8-2.8-2.9c-0.2,0-0.3,0-0.6-0.1c0-0.4,0-0.8,0-1.1c6.6,0,13.2,0,20,0c0,1.6,0,3.3,0,4.9c0,0.4-0.5,0.7-0.8,1
		c-0.2-0.3-0.6-0.6-0.7-0.9c-0.8-2-1.6-3.2-4-3.1c-1.6,0.1-3.3,0.1-4.9,0c-1.2-0.1-1.7,0.5-1.7,1.6c0,2.9,0,5.8,0,8.9
		c2.6,0.5,5.1,0.8,7.6-0.5c0.6-0.3,0.8-1.2,1.2-1.9c0.3-0.5,0.6-0.9,0.9-1.4c0.1,0.1,0.2,0.1,0.4,0.2c0,3.1,0,6.2,0,9.4
		c-0.9,0.1-1.2-0.3-1.3-1.1c-0.3-1.9-1-2.5-2.9-2.5c-1.5,0-3-0.1-4.5,0.1c-0.5,0-1.2,0.7-1.2,1.1c0,2.9,0,5.8,0.2,8.7
		c0.1,1.9,1,2.6,2.9,2.6c1.1,0,2.3,0,3.4,0c1.9,0,3.1-0.9,3.7-2.7c0.2-0.6,0.3-1.6,1.6-1.1c-0.1,0.7-0.3,1.6-0.3,2.4
		c0,0.5,0.3,0.9,0.5,1.4c0.4-0.3,1.1-0.5,1.3-0.9c1.6-3.5,3-7.1,4.5-10.6c1.7-4.1,3.5-8.3,5.2-12.4c0.3-0.8,0.8-1.5,1-2.4
		c0.2-1,0.8-0.9,1.5-1c1.2-0.1,1.7,0.4,2,1.4c2.3,7.7,4.7,15.3,7,23c0.5,1.7,2.6,3.1,4.5,2.2c1.2-0.6,1.6-1.6,1.6-2.8
		c0-6.4-0.1-12.8-0.3-19.3c0-1.5-1.4-2.8-2.9-3c-0.9-0.1-1.2-0.6-1-1.6c2.3,0,4.7-0.1,7,0.1c0.5,0,1.1,0.8,1.5,1.3
		c4.2,5.4,8.4,10.9,12.7,16.3c1.2,1.6,2.5,3.1,3.7,4.7C271.3,144.7,271.4,144.7,271.5,144.7z M234.4,128.2
		c-1.5,3.8-2.9,7.2-4.4,10.8c2.6,0,5,0,7.5,0C236.4,135.5,235.4,132,234.4,128.2z"/>
	<path fill="#B3B3B3" d="M189.2,87.6c-0.2-0.7,0-1.2,0.9-1.2c3.8,0,7.6,0,11.4,0c0.3,0.9,0,1.3-0.9,1.3c-0.6,0-1.2,0.2-1.7,0.5
		c-1.3,0.6-1.5,1.2-0.9,2.5c1.6,3.6,3.3,7.2,4.9,10.8c0.1,0.3,0.3,0.5,0.6,0.9c0.5-0.8,1-1.5,1.3-2.2c1.5-2.9,2.9-5.8,4.3-8.7
		c1-2.1,0.5-3.1-1.7-3.6c-0.5-0.1-0.8-0.6-1.2-0.9c0.4-0.2,0.8-0.6,1.2-0.6c2.9-0.1,5.7,0,8.6,0c0.6,0,1.3-0.1,1.2,0.7
		c0,0.3-0.6,0.7-1,0.8c-1.6,0.2-2.5,1.3-3.2,2.6c-2.2,4.1-4.3,8.3-6.6,12.4c-1.1,1.9-1.5,3.8-1.3,5.8c0.1,1.1,0.1,2.1,0,3.2
		c-0.1,1.3,0.6,2.1,1.7,2.4c1.2,0.4,2.2-0.2,2.7-1.1c1-1.6,1.7-3.4,2.4-5.1c1.7-4,3.4-8.1,5.2-12.1c1.1-2.6,2.2-5.2,3.3-7.9
		c0.6-1.6,1.7-2.2,3.3-1.6c0.3,0.1,0.5,0.6,0.6,1c2.7,8.4,5.5,16.8,8.2,25.2c0.2,0.6,0.2,1.7,1.2,1.5c0.9-0.2,1.2-1,1.2-1.9
		c0-7.2,0-14.5,0-21.7c0-1.5-0.7-2.3-2.2-2.5c-0.5-0.1-1-0.2-2-0.5c0.6-0.5,0.9-1.1,1.3-1.1c3.9-0.1,7.8,0,11.8,0c0,0.5,0,0.8,0,1.2
		c-0.5,0.1-1.1,0.3-1.6,0.4c-1.6,0.4-2,0.9-2,2.5c0,6.9,0,13.8,0,20.8c0,1.8,0.3,2.4,2.1,2.7c1.5,0.2,3,0.2,4.5,0
		c2.2-0.2,2.9-2,3.7-3.8c0.2-0.4,0.8-1,1.2-1c0.9,0,0.7,0.8,0.6,1.4c-0.3,2-0.5,3.9-0.8,5.9c-0.3,0-0.6,0.1-0.9,0.1
		c-8.5,0-17,0-25.5,0c-0.1,0-0.3,0.1-0.4,0c-0.3-0.2-0.6-0.5-1-0.8c0.3-0.3,0.6-0.6,0.9-0.8c0.6-0.3,1.3-0.3,1.9-0.7
		c0.9-0.6,1.2-1.4,0.8-2.5c-0.8-2.2-1.4-4.5-2.1-6.7c-3,0-6,0-9.1,0c-1,2.5-2.1,4.9-2.9,7.4c-0.2,0.5,0.4,1.4,0.9,1.8
		c0.7,0.5,1.6,0.5,2.4,0.8c0.4,0.2,0.7,0.6,1,0.9c-0.4,0.2-0.7,0.6-1.1,0.6c-6.6,0-13.2,0-19.8,0c-0.3,0-0.7-0.5-1-0.8
		c0.3-0.3,0.6-0.6,1-0.7c0.6-0.2,1.3-0.1,1.9-0.4c1.1-0.6,1.8-1.3,1.9-2.8c0.3-4.2-0.6-7.9-2.7-11.5c-1.7-2.9-3-6-4.4-9
		C192,88.7,192.2,88.6,189.2,87.6z M224.5,102.8c-1-3.4-2.1-6.7-3.2-10.3c-1.5,3.7-2.8,6.9-4.2,10.3
		C219.6,102.8,221.9,102.8,224.5,102.8z"/>
	<path fill="#B3B3B3" d="M100.7,99.7c2.5,2,4.7,3.6,6.9,5.3c0.6,0.5,0.8,0.9,0.2,1.6c-0.6,0.7-1,1.5-1.5,2.3
		c-0.7,1.3-0.1,2.4,1.3,2.4c1.9-0.1,3.7-0.3,5.6-0.6c0.2,0,0.6-0.6,0.6-0.9c0-4,0-8,0-12.2c-4.3,0-8.5,0-12.9,0c0-1.8,0-3.4,0-5
		c11.4,0,22.8,0,34.2,0c0,1.6,0,3.2,0,4.9c-4.2,0-8.4,0-12.7,0c-0.1,0.3-0.1,0.6-0.1,0.8c0,3.7,0,7.5,0,11.2c0,0.9,0.3,1.2,1.2,1.2
		c1.6,0.1,3.3,0.4,4.9,0.5c1.5,0.1,2.1-1.1,1.4-2.4c-0.3-0.6-0.7-1.1-1.1-1.6c-0.3-0.5-0.7-0.9-1.1-1.5c2.5-2,4.9-3.9,7.7-6.1
		c-0.1,1.6-0.2,3-0.3,4.3c-0.3,2.7-0.7,5.4-1,8.1c-0.1,1.4-0.5,2.2-2,2.7c-4.4,1.3-8.8,2.8-13.2,4.2c-0.4,0.1-0.9,0.1-1.3,0
		c-4.6-1.4-9.2-3-13.8-4.4c-1-0.3-1.3-0.8-1.5-1.7c-0.3-2.5-0.6-5-0.8-7.5C101.1,103.6,100.9,101.8,100.7,99.7z"/>
	<path fill="#B3B3B3" d="M155.9,102.9c2.8,3.5,5.4,6.9,8.2,10.2c0.8,0.9,1.9,1.4,2.8,2.2c0.3,0.2,0.5,0.5,0.7,0.8
		c-0.3,0.2-0.6,0.5-0.9,0.5c-1.6,0.1-3.2,0.3-4.7-0.1c-0.9-0.2-1.7-1.2-2.3-2c-2.6-3.3-5.2-6.6-7.6-10c-0.5-0.7-1-0.9-1.7-0.8
		c-0.6,0-1.1,0-1.2-0.9c0-0.9,0.5-1,1.2-1c3.1-0.1,6-1,7.4-4c1.3-2.7,0.9-7.7-2.8-9c-2-0.7-4-0.6-6-0.2c-0.2,0-0.5,0.6-0.5,0.9
		c0,7.7,0,15.3,0,23c0,1.5,1.1,2.3,2.8,2.5c0.6,0,1.3,0.1,1.1,0.9c-0.1,0.3-0.7,0.7-1.1,0.7c-3.4,0.1-6.8,0.1-10.2,0
		c-0.4,0-0.7-0.5-1.1-0.8c0.4-0.3,0.7-0.7,1.1-0.8c1.9-0.2,3-1.3,2.9-3.1c-0.1-6.8-0.1-13.7,0-20.5c0-2.1-0.8-3.1-2.9-3.4
		c-0.6-0.1-1.3-0.1-1-0.9c0.1-0.3,0.9-0.5,1.4-0.5c2.4-0.1,4.7-0.1,7.1-0.1c3.4-0.1,6.8-0.5,10.1,0.9c2.7,1.2,3.8,3.4,4.2,6.2
		c0.5,4.3-2.1,6.6-5.4,8.6C156.9,102.5,156.4,102.7,155.9,102.9z"/>
	<path fill="#B3B3B3" d="M177.7,117c-2.5-0.1-4.9-0.6-7.2-1.7c-3.4-1.7-5.2-4.6-6.2-8.1c-0.8-3-0.9-6.1-0.3-9.1
		c0.7-3.5,2.5-6.5,5.3-8.7c3.8-3,8.2-4.2,12.8-3.5c5.7,0.8,8.7,3.5,10.3,9c1.2,4.1,1.3,8.4-0.3,12.4c-1.8,4.6-5.1,7.7-10,8.9
		C180.8,116.7,179.2,116.8,177.7,117z M189,101.4c-0.1-1.1-0.2-2.3-0.4-3.4c-0.6-3.3-1.7-6.3-4.6-8.4c-2.4-1.7-5.1-2.2-7.8-1.4
		c-3.5,0.9-5.6,3.6-6.9,7c-1.2,3-1.6,6.2-1.1,9.4c0.5,2.8,1.5,5.5,3.6,7.4c4.5,4.2,11.2,3.5,14.7-1.5
		C188.3,107.8,188.9,104.6,189,101.4z"/>
	<path fill="#B3B3B3" d="M173.8,136.2c1,0.3,2,0.6,3,1c2.3,0.9,2.8,3,3,5.2c0.7,5.9-4.2,9.8-8.9,9.9c-4.3,0.1-8.7-0.1-13.1-0.3
		c-0.3,0-0.7-0.4-0.7-0.7s0.3-0.8,0.5-0.8c2.4-0.7,3.1-1.5,3.1-4c0.1-6.7,0-13.3,0-20c0-1.4-1.1-1.9-2.3-2.3
		c-0.5-0.2-1.1-0.3-1.6-0.4c0-0.4,0-0.7,0-1.1c0.2-0.1,0.3-0.1,0.4-0.1c0.7,0,1.4,0,2.1,0c4-0.1,8.1-0.3,12.1-0.2
		c2.7,0,5.1,1.1,6.2,3.8c1.1,2.8,0.4,6.7-2.3,8.8C174.9,135.5,174.3,135.9,173.8,136.2z M175.9,143.6c0.1-2.4-0.9-4.5-2.9-5.5
		s-4.4-1.5-6.8-1c-1.1,0.2-1.2,0.7-1.2,1.6c0,3.1,0,6.2,0,9.2c0,1.4,0.6,2.1,1.9,2.5C171.8,151.7,176,148.6,175.9,143.6z
		 M164.8,130.3L164.8,130.3c0,0.7,0,1.4,0,2.1c0,3.1-0.5,3.4,3.3,3.2c2.8-0.1,5.5-1.4,6-4.8c0.3-2.3,0-4.4-1.8-5.7
		c-1.9-1.4-4.2-1.3-6.4-0.4c-0.5,0.2-1,1.1-1.1,1.7C164.7,127.6,164.8,129,164.8,130.3z"/>
	<path fill="#B3B3B3" d="M179.1,122.8c0.2,0,0.3-0.1,0.4-0.1c4.5-0.1,9-0.2,13.6-0.3c2.2-0.1,4.2,0.5,5.7,2c1.6,1.6,1.9,3.7,1.5,5.9
		c-0.5,2.7-2,4.6-4.6,6c0.8,0.1,1.3,0.1,1.8,0.2c2.6,0.7,4,2.5,4.5,5.1c1.1,4.7-2.4,9-6.6,10.2c-3.4,0.9-6.7,0.6-10,0.2
		c-1.6-0.2-3.3,0-4.9,0c-0.6,0-1.3,0-1.1-0.8c0.1-0.3,0.7-0.7,1.1-0.8c1.3-0.2,2.3-1.1,2.6-2.7c0.2-1.2,0.3-2.3,0.3-3.5
		c0-5.3,0-10.6,0-15.9c0-2.9-0.6-3.7-3.4-4.3C179.1,123.8,179,123.4,179.1,122.8z M187.3,143.4c0,1.5,0,3,0,4.5
		c-0.1,1.3,0.6,1.9,1.7,2.3c2.9,1.1,5.5,0.5,7.5-1.5c1.8-1.8,2-4.4,1.5-6.9c-0.2-1-0.7-2.2-1.5-2.8c-2.4-1.9-5.3-2.4-8.3-1.8
		c-0.6,0.1-0.9,0.5-0.9,1.2C187.3,140.1,187.3,141.7,187.3,143.4z M187.3,130.2c0,1.4,0,2.8,0,4.2c0,0.9,0.4,1.2,1.1,1.2
		c1.2,0,2.5,0,3.6-0.3c4.2-0.9,5.3-4.5,4.1-8c-1.2-3.6-4.9-3.4-7.7-2.8c-0.9,0.2-1.2,0.8-1.2,1.7
		C187.3,127.6,187.3,128.9,187.3,130.2z"/>
	<path fill="#B3B3B3" d="M135.3,78.3c-0.6,4.5-1.2,8.7-1.7,12.9c-0.4,0-0.8,0.1-1.1,0.1c-9.6,0-19.2,0-28.8,0
		c-1.2,0-1.4-0.5-1.5-1.5c-0.3-3.1-0.8-6.1-1.2-9.2c-0.1-0.6-0.1-1.2-0.2-2.1c1.6,1,3,1.8,4.3,2.6c1.2,0.8,2.4,1.6,3.6,2.3
		c0.8,0.5,1.2,1,0.2,1.7c-0.7,0.6-1.3,1.3-2.1,2.1c1.3,0.8,2.4,1.6,3.6,2.4c0.1,0.1,0.3,0,0.5-0.1c1.1-0.7,2.3-1.5,3.4-2.2
		c-0.9-1.1-1.8-2-2.6-3c2-2.2,4.1-4.3,6.3-6.7c2.1,2.3,4.2,4.4,6.4,6.7c-0.9,0.9-1.9,1.7-3.1,2.8c1.4,0.9,2.6,1.7,3.8,2.4
		c0.2,0.1,0.5,0,0.7-0.1c1-0.6,2-1.3,3.2-2.1c-0.9-1-1.7-1.9-2.7-3.1C129.2,82.3,132,80.4,135.3,78.3z"/>
</g>
</svg>
