<?xml version="1.0" encoding="utf-8"?>
<!-- Generator: Adobe Illustrator 17.1.0, SVG Export Plug-In . SVG Version: 6.00 Build 0)  -->
<!DOCTYPE svg PUBLIC "-//W3C//DTD SVG 1.1//EN" "http://www.w3.org/Graphics/SVG/1.1/DTD/svg11.dtd">
<svg version="1.1" id="Layer_1" xmlns="http://www.w3.org/2000/svg" xmlns:xlink="http://www.w3.org/1999/xlink" x="0px" y="0px"
	 viewBox="0 0 350 230" enable-background="new 0 0 350 230" xml:space="preserve">
<g>
	<path fill="#B3B3B3" d="M127.9,115.1c0,18.8-15,35-35.1,34.9c-19.7,0-35.1-16-34.9-35.4C58.1,95.4,73.6,80,93.2,80
		C112.3,80,127.9,95.8,127.9,115.1z M86.9,98.3c-1.2,0.1-3.3,0-5.4,0.3c-3.5,0.5-6.9,1.1-10.3,1.9c-2,0.5-3,2.4-2.5,4.3
		c0.6,1.9,2.3,2.8,4.3,2.4c3.7-0.7,7.4-1.6,11.2-1.8c3.8-0.2,7.7,0,11.6,0.4c6.3,0.6,12.3,2.2,17.8,5.4c1.9,1,3.9,0.6,4.9-1.1
		s0.5-3.8-1.4-4.9c-1-0.6-2.1-1.2-3.2-1.7C105.5,99.7,96.8,98.3,86.9,98.3z M86.4,110.3c-1.2,0.1-3,0.1-4.8,0.3
		c-2.9,0.5-5.8,1.1-8.6,1.7c-1.3,0.3-2,1.4-2.1,2.6c-0.1,1.3,0.5,2.5,1.7,2.8c0.8,0.2,1.7,0.1,2.5,0c3.3-0.5,6.6-1.4,9.9-1.5
		c8.7-0.4,16.9,1.3,24.5,5.7c0.6,0.4,1.6,0.4,2.3,0.3c1.3-0.2,2-1.2,2.1-2.5s-0.5-2.3-1.7-3C104.4,112.3,95.9,110.4,86.4,110.3z
		 M87.3,121.8c-4.3,0.1-8.6,0.6-12.8,1.6c-1.5,0.4-2.4,1.6-2.1,2.9c0.3,1.4,1.5,2.1,3.1,1.8c2.3-0.4,4.5-0.8,6.8-1.1
		c4.7-0.6,9.3-0.4,14,0.6c3.4,0.8,6.5,2,9.5,3.8c0.9,0.5,1.8,0.7,2.7,0.1c0.8-0.5,1.2-1.3,1-2.3c-0.1-1-0.8-1.6-1.7-2.1
		C101.5,123.3,94.6,121.8,87.3,121.8z"/>
	<path fill="#B3B3B3" d="M255.5,112.3c0,3.4,0,6.5,0,9.7c0,2.8,0,5.5,0,8.3c0,0.8-0.3,1.1-1.1,1.1c-1.3-0.1-2.6-0.1-3.9,0
		c-0.9,0.1-1.2-0.3-1.2-1.2c0-5.5,0-10.9,0-16.4c0-0.4,0-0.9,0-1.4c-0.8,0-1.6,0.1-2.2,0c-0.3-0.1-0.8-0.5-0.8-0.8
		c-0.1-1.3-0.1-2.6,0-3.9c0-0.3,0.5-0.7,0.8-0.7c0.7-0.1,1.4,0,2.1,0c0.1-1.4,0.2-2.6,0.4-3.9c0.6-3.1,2.7-5.1,5.8-5.3
		c1.8-0.1,3.6,0.2,5.4,0.3c0.7,0,0.9,0.4,0.9,1.1c-0.1,1.4,0,2.8,0,4.4c-0.4-0.1-0.7-0.1-1.1-0.2c-0.5-0.1-0.9-0.3-1.4-0.3
		c-2.9-0.4-4.1,0.8-3.7,3.9c0.9,0,1.9,0,2.9,0c1.7,0,3.4,0.1,5.1,0c1.1-0.1,1.6,0.3,2,1.3c1.7,4.7,3.6,9.5,5.4,14.2
		c0.1,0.3,0.3,0.7,0.5,1.2c1-2.7,1.9-5.3,2.7-7.8c0.9-2.7,1.9-5.3,2.8-8c0.2-0.7,0.6-0.9,1.3-0.9c1.7,0,3.5,0,5.4,0
		c-0.1,0.5-0.2,0.9-0.4,1.3c-3,7.8-6,15.6-9.1,23.4c-0.3,0.7-0.6,1.4-0.9,2.1c-2.2,4.4-5,5.4-9.6,4.7c-1-0.2-2-0.7-3-1
		c-0.6-0.2-0.7-0.6-0.4-1.1c0.5-1.1,1-2.2,1.5-3.3c0.3-0.6,0.6-0.6,1.1-0.4c0.6,0.3,1.2,0.4,1.8,0.6c1.6,0.3,2.7-0.2,3.4-1.6
		c0.2-0.3,0.2-0.9,0.1-1.2c-2.4-5.8-4.8-11.5-7.2-17.3c-0.1-0.3-0.5-0.7-0.8-0.7C258.6,112.3,257.1,112.3,255.5,112.3z"/>
	<path fill="#B3B3B3" d="M172.1,128.5c0,3.1,0,6,0,8.8c0,0.9-0.3,1.2-1.2,1.2c-1.3-0.1-2.6-0.1-3.9,0c-0.8,0-1.1-0.2-1.1-1.1
		c0-2.5,0-5,0-7.5c0-7.2,0-14.4,0-21.6c0-1.5,0-1.5,1.6-1.5c1.2,0,2.4,0,3.6,0c0.8,0,1.1,0.3,1,1c-0.1,0.6,0,1.2,0,1.9
		c0.2-0.1,0.4-0.2,0.5-0.3c4.8-5.4,13.9-3.6,17.1,3c2.1,4.4,2.1,8.9,0,13.2c-3.3,6.6-12.2,8.1-17,3.2
		C172.6,128.8,172.4,128.8,172.1,128.5z M172,119.1c-0.1,0-0.2,0.1-0.3,0.1c0.5,1.4,0.8,2.9,1.6,4.2c1.2,2.1,3.3,3.1,5.8,2.9
		c2.6-0.2,4.5-1.6,5.3-4.1c0.5-1.5,0.6-3.2,0.4-4.8c-0.7-4.8-5.9-7.1-9.7-4.4C172.9,114.4,172,116.6,172,119.1z"/>
	<path fill="#B3B3B3" d="M142.3,121.9c0.8,0.6,1.5,1.2,2.3,1.7c2.8,1.9,5.8,2.9,9.2,2.3c0.9-0.1,1.8-0.5,2.5-0.9
		c1.8-1.3,1.8-4.1-0.2-5.1c-1.7-0.9-3.7-1.3-5.5-1.9c-1.7-0.6-3.5-1-5.2-1.7c-3.5-1.4-5.3-4.1-5.3-7.9c0-3.7,1.6-6.6,4.9-8.3
		c4.3-2.2,8.7-1.8,13.1-0.1c1.7,0.7,3.3,1.8,5.2,2.8c-1.2,1.7-2.2,3.1-3.3,4.5c-0.1,0.1-0.8,0-1.1-0.2c-2-1.4-4.2-2.5-6.7-2.6
		c-1.4-0.1-2.9,0.1-4.2,0.7c-2.3,1.1-2.3,4.1-0.1,5.3c1.7,0.9,3.6,1.3,5.5,1.9c1.6,0.5,3.3,0.9,4.9,1.6c4.1,1.8,5.8,4.4,5.6,8.7
		c-0.2,3.8-2.5,7.1-6.4,8.3c-6.8,2.1-12.8,0.4-18.2-4c-0.2-0.2-0.3-0.8-0.2-1C140,124.6,141.1,123.3,142.3,121.9z"/>
	<path fill="#B3B3B3" d="M205.9,131.8c-7.3,0-13-5.5-13-12.6c-0.1-7.1,5.7-12.9,13-12.9s13.1,5.7,13,12.8
		C219,126.2,213.2,131.8,205.9,131.8z M212.7,119.2c0-4.1-2.9-7.3-6.8-7.3c-3.9,0-6.8,3-6.8,7.1c0,4.2,3,7.4,6.9,7.4
		C209.8,126.4,212.7,123.4,212.7,119.2z"/>
	<path fill="#B3B3B3" d="M228.6,106.9c1.8,0,3.5,0,5.2,0c0.9,0,1.2,0.2,1.2,1.1c-0.1,1-0.1,2.1,0,3.1c0.1,0.9-0.2,1.3-1.2,1.2
		c-1.7-0.1-3.3,0-5.1,0c0,0.4-0.1,0.7-0.1,1c0,3.4,0,6.7,0,10.1c0,2.1,1,3,3,2.7c1-0.1,2-0.5,3.2-0.8c0,1.6,0,3.2,0,4.9
		c0,0.2-0.4,0.4-0.6,0.5c-2.7,1.2-5.4,1.4-8.1,0.4c-2.9-1.2-3.6-3.7-3.7-6.6c0-3.6,0-7.2,0-10.8c0-0.4,0-0.8,0-1.4
		c-0.7,0-1.4,0-2.1,0c-0.6,0-1-0.2-0.9-0.9c0-1.3,0-2.5,0-3.8c0-0.6,0.2-0.8,0.8-0.8c0.7,0,1.4,0,2.2,0c0-1.9,0-3.6,0-5.4
		c0-0.9,0.2-1.2,1.1-1.2c1.3,0.1,2.7,0.1,4,0c0.8,0,1.1,0.2,1.1,1.1C228.6,103.2,228.6,105,228.6,106.9z"/>
	<path fill="#B3B3B3" d="M237.5,119c0-3.6,0-7.3,0-10.9c0-1,0.3-1.3,1.3-1.2c1.3,0.1,2.7,0,4,0c0.7,0,1,0.3,1,1c0,7.5,0,15,0,22.4
		c0,0.7-0.2,1.1-1,1.1c-1.4-0.1-2.8-0.1-4.2,0c-0.8,0-1-0.3-1-1C237.5,126.5,237.5,122.8,237.5,119z"/>
	<path fill="#B3B3B3" d="M236.8,100c0-2.2,1.7-3.9,3.8-3.9s3.8,1.7,3.9,3.8c0,2.2-1.6,3.9-3.8,4C238.6,103.9,236.8,102.2,236.8,100z
		"/>
	<path fill="#B3B3B3" d="M288.1,114.4c-2.2-0.1-3.7-1.8-3.6-4c0.1-2,1.9-3.7,3.9-3.6c2.1,0.1,3.8,1.9,3.7,4
		C292,112.9,290.3,114.5,288.1,114.4z M288.3,107.2c-1.9,0-3.5,1.5-3.5,3.4s1.6,3.5,3.5,3.5s3.4-1.5,3.4-3.4
		C291.7,108.7,290.2,107.2,288.3,107.2z"/>
	<path fill="#B3B3B3" d="M286.8,112.4c0-1.2,0-2.4,0-3.8c1.1,0.1,2.3-0.5,3.1,0.6c0.6,0.8,0,1.4-0.6,1.9c0.3,0.4,0.5,0.9,0.8,1.3
		c-0.1,0.1-0.1,0.2-0.2,0.2c-0.3-0.3-0.7-0.6-1-0.8c-0.3-0.2-0.6-0.4-0.9-0.6c-0.1,0.3-0.3,0.6-0.4,0.9c-0.1,0.2-0.3,0.4-0.4,0.5
		C286.9,112.5,286.8,112.4,286.8,112.4z M287.4,109c0,0.7,0.1,1,0.1,1.6c0.6-0.2,1.1-0.3,1.6-0.5c0.1,0,0.1-0.6,0-0.6
		C288.6,109.4,288.1,109.2,287.4,109z"/>
</g>
</svg>
