<?xml version="1.0" encoding="utf-8"?>
<!-- Generator: Adobe Illustrator 17.1.0, SVG Export Plug-In . SVG Version: 6.00 Build 0)  -->
<!DOCTYPE svg PUBLIC "-//W3C//DTD SVG 1.1//EN" "http://www.w3.org/Graphics/SVG/1.1/DTD/svg11.dtd">
<svg version="1.1" id="Layer_1" xmlns="http://www.w3.org/2000/svg" xmlns:xlink="http://www.w3.org/1999/xlink" x="0px" y="0px"
	 viewBox="0 0 350 230" enable-background="new 0 0 350 230" xml:space="preserve">
<g>
	<path fill="#B3B3B3" d="M190.2,133.9c0.9-1.4,1.7-2.6,2.4-3.7c2-3,3.9-6,5.9-9c0.3-0.5,0.9-1,1.4-1c1.7-0.1,3.4,0,5.3,0
		c0,9.8,0,19.5,0,29.4c-1.5,0-3,0-4.5,0c-1,0-0.8-0.8-0.8-1.4c0-5.7,0-11.3,0-17c0-0.5,0-1,0-1.5c-0.1,0-0.3-0.1-0.4-0.1
		c-3.1,4.7-6.1,9.4-9.4,14.3c-3.2-4.9-6.3-9.6-9.4-14.3c-0.1,0-0.2,0.1-0.3,0.1c0,0.5-0.1,1-0.1,1.5c0,5.6,0,11.2,0,16.8
		c0,1.3-0.4,1.6-1.6,1.6c-3.8,0-3.8,0-3.8-3.8c0-7.9,0-15.8,0-23.8c0-0.6,0-1.2,0-1.9c2,0,3.8-0.1,5.6,0.1c0.4,0,0.9,0.6,1.2,1.1
		c2.5,3.7,4.9,7.5,7.3,11.3C189.4,132.8,189.7,133.2,190.2,133.9z"/>
	<path fill="#B3B3B3" d="M255.6,128.6c0,6.9,0,13.7,0,20.7c-1.9,0-3.5,0-5.3,0c0-9.8,0-19.4,0-29.3c1.8,0,3.6-0.1,5.3,0
		c0.5,0,1,0.6,1.3,1c4.9,6.2,9.8,12.4,14.6,18.5c0.3,0.4,0.7,0.8,1.2,1.5c0-7.2,0-14,0-21c1.8,0,3.5,0,5.3,0c0,9.7,0,19.3,0,29.2
		c-1.8,0-3.7,0.1-5.5-0.1c-0.4,0-0.8-0.6-1.1-1.1c-4.9-6.2-9.7-12.4-14.6-18.6c-0.3-0.4-0.6-0.8-0.9-1.1
		C255.8,128.6,255.7,128.6,255.6,128.6z"/>
	<path fill="#B3B3B3" d="M118.2,150c-8.4,0-15.4-6.9-15.4-15.3s6.9-15.4,15.4-15.4s15.4,6.9,15.4,15.4
		C133.7,143.1,126.8,150,118.2,150z M128.2,134.8c0-5.4-4.4-9.7-10-9.7c-5.5,0-9.9,4.2-9.9,9.6c0,5.5,4.5,10,9.9,10
		C123.7,144.7,128.2,140.3,128.2,134.8z"/>
	<path fill="#B3B3B3" d="M141.8,149.4c0-9.9,0-19.5,0-29.4c0.6,0,1.1,0,1.6,0c4,0,8.1,0,12.1,0c1.1,0,2.3,0.1,3.4,0.3
		c6.6,1.3,9.7,7.5,7,13.7c-1.5,3.5-4.6,4.8-8.1,5c-3,0.2-6,0.2-9,0.1c-1.4,0-1.7,0.5-1.7,1.8c0.1,2.5,0,4.9,0,7.4
		c0,0.9-0.3,1.2-1.2,1.2C144.7,149.3,143.3,149.4,141.8,149.4z M152.6,133.8L152.6,133.8c1.5,0,3,0,4.4,0c2.6-0.1,4-1.7,4-4.3
		c-0.1-2.3-1.5-3.9-4-4.1c-2.9-0.2-5.9-0.1-8.8-0.1c-0.3,0-0.9,0.6-0.9,0.9c-0.1,2.2,0,4.3-0.1,6.5c0,0.9,0.3,1.1,1.1,1.1
		C149.7,133.8,151.1,133.8,152.6,133.8z"/>
	<path fill="#B3B3B3" d="M212.9,149.4c1-2.5,1.9-4.7,2.8-6.8c2.9-7,5.8-14,8.6-21c0.4-1.1,0.9-1.6,2.2-1.6c4,0.1,4,0,5.6,3.8
		c3.3,8.1,6.6,16.2,10,24.3c0.1,0.4,0.2,0.7,0.4,1.3c-1.9,0-3.7,0-5.5,0c-0.3,0-0.7-0.5-0.8-0.9c-0.6-1.5-1.2-3-1.7-4.5
		c-0.3-0.7-0.6-1.1-1.5-1.1c-3.5,0-7,0-10.5,0.1c-0.5,0-1.1,0.5-1.3,1c-0.7,1.5-1.2,3-1.8,4.5c-0.3,0.8-0.7,1.1-1.5,1
		C216.4,149.3,214.8,149.4,212.9,149.4z M228,127c-0.1,0-0.2,0-0.4,0c-1.3,3.5-2.6,6.9-4,10.5c2.9,0,5.5,0,8.4,0
		C230.6,133.9,229.3,130.4,228,127z"/>
	<path fill="#B3B3B3" d="M71.2,120.1c9.6,0,19,0,28.7,0c0,1.5,0.1,3-0.1,4.5c0,0.2-0.8,0.6-1.2,0.6c-2.9,0.1-5.7,0-8.6,0
		c-0.5,0-1.1,0-1.8,0c0,8.1,0,16,0,24c-1.9,0-3.5,0-5.3,0c0-0.6-0.1-1.1-0.1-1.7c0-6.9,0-13.9,0-20.8c0-1.2-0.3-1.6-1.6-1.6
		c-2.9,0.1-5.9,0-8.9,0c-0.9,0-1.4-0.2-1.3-1.2C71.3,122.8,71.2,121.5,71.2,120.1z"/>
	<path fill="#B3B3B3" d="M126.7,95.3c-0.1,4.3-1,8.3-4.1,11.5c-5.5,5.7-15.2,4.9-19.3-1.9c-3.8-6.2-3.9-12.9,0-19.1
		c4.9-8,16.6-7.6,21.3,0.6C126.1,89.2,126.7,92.2,126.7,95.3z M102.4,95.3c0,2.8,0.5,5.5,1.9,7.9c2.1,3.7,5.3,5.6,9.5,5.6
		s7.4-2,9.3-5.7c2.7-5.2,2.7-10.5,0-15.7c-1.9-3.7-5.2-5.7-9.4-5.8c-4.3,0-7.4,2-9.5,5.7C102.8,89.9,102.3,92.6,102.4,95.3z"/>
	<path fill="#B3B3B3" d="M222.9,95.2c0.6-2.4,0.9-4.8,1.7-7.1c1.9-5,6.5-8.1,11.6-8.1c5.2,0,9.8,3.1,11.7,8.2
		c2,5.1,1.9,10.3-0.5,15.3c-2.2,4.6-6,6.9-11.1,7c-5.1,0-8.8-2.3-11.2-6.8C223.7,101.1,223.2,98.2,222.9,95.2z M225,95.3
		c0,2.9,0.5,5.7,2,8.2c4.3,7.3,14.6,7.2,18.6-0.2c2.8-5.2,2.8-10.6,0.1-15.9c-1.9-3.8-5.2-5.8-9.6-5.8c-4.3,0-7.4,2.1-9.4,5.8
		C225.4,89.9,224.9,92.6,225,95.3z"/>
	<path fill="#B3B3B3" d="M212.1,80.7c0.6,0,1.1,0,1.6,0c0,9.8,0,19.5,0,29.3c-0.5,0-1,0-1.6,0c0-4.7,0-9.3,0-14
		c-5.8,0-11.5,0-17.4,0c0,4.6,0,9.3,0,14c-0.7,0-1.1,0-1.6,0c0-9.8,0-19.5,0-29.3c0.5,0,0.9,0,1.5,0c0,4.5,0,8.9,0,13.5
		c5.9,0,11.6,0,17.5,0C212.1,89.6,212.1,85.2,212.1,80.7z"/>
	<path fill="#B3B3B3" d="M258.8,80.5c4.5,0.2,8.9,0,13.3,0.6c4.1,0.5,6.4,3.4,6.7,7.6c0.3,4.1-1.8,7.6-5.5,8.8
		c-1.7,0.6-3.6,0.7-5.3,0.8c-2.4,0.1-4.9,0-7.5,0c0,4,0,7.8,0,11.7c-0.6,0-1.1,0.1-1.6,0.1C258.8,100.3,258.8,90.6,258.8,80.5z
		 M260.5,97c3.7-0.2,7.3-0.3,11-0.5c0.6,0,1.2-0.3,1.8-0.6c2.5-1.2,3.9-3.7,3.7-7c-0.2-3.2-1.6-5.4-4.4-6.1c-3.9-1.1-8-0.4-12-0.5
		C260.5,87.1,260.5,91.9,260.5,97z"/>
	<path fill="#B3B3B3" d="M137.9,98.4c0,4,0,7.8,0,11.7c-0.6,0-1.1,0-1.6,0c0-9.8,0-19.5,0-29.6c4.6,0.2,9.2,0.1,13.7,0.7
		c3.9,0.5,5.9,3.3,6.2,7.2c0.3,4.2-1.4,7.6-4.9,8.9c-2,0.7-4.2,0.9-6.3,1.1C142.6,98.5,140.3,98.4,137.9,98.4z M137.9,96.6
		c3.6,0,7.1,0.3,10.4-0.1c4.2-0.5,6.3-3.4,6-7.7c-0.3-4-2.7-6.4-6.9-6.6c-3-0.1-6,0-9,0c-0.2,0-0.4,0.1-0.5,0.2
		C137.9,87.2,137.9,91.9,137.9,96.6z"/>
	<path fill="#B3B3B3" d="M163.8,107.2c0.3-0.3,0.6-0.7,0.7-0.8c2.4,0.9,4.6,2,6.9,2.5c1.4,0.4,2.9,0.2,4.4-0.1
		c2.5-0.4,4.3-1.7,4.9-4.3c0.6-2.7,0-5.2-2.4-6.8c-1.7-1.1-3.7-1.7-5.6-2.4c-1.7-0.7-3.5-1.1-5-2c-4.5-2.7-4.3-9.3,0.3-11.9
		c3.9-2.2,10.5-1.5,13.9,1.5c-0.5,1.1-1,1.3-2.1,0.6c-2.7-1.8-5.7-2.2-8.9-1.5c-2.7,0.6-4.3,2.3-4.6,4.7c-0.3,2.7,0.7,4.6,3.4,5.7
		c1.3,0.6,2.7,0.9,4,1.4c1.3,0.4,2.6,0.7,3.8,1.3c3.9,1.7,5.7,4.9,5.1,9c-0.5,3.6-2.9,5.7-7.1,6.4
		C171.3,111.2,166.4,109.8,163.8,107.2z"/>
	<path fill="#B3B3B3" d="M96.8,82.3c-3.8,0-7.6,0-11.5,0c0,9.3,0,18.4,0,27.8c-0.6,0.1-1.1,0.1-1.7,0.2c0-9.3,0-18.6,0-27.9
		c-4,0-7.8,0-11.7,0c0-0.6,0-1-0.1-1.5c0.5-0.1,0.8-0.1,1.2-0.1c7.6,0,15.2,0,22.7,0C96.8,80.7,97.3,80.9,96.8,82.3z"/>
</g>
</svg>
