<?xml version="1.0" encoding="utf-8"?>
<!-- Generator: Adobe Illustrator 17.1.0, SVG Export Plug-In . SVG Version: 6.00 Build 0)  -->
<!DOCTYPE svg PUBLIC "-//W3C//DTD SVG 1.1//EN" "http://www.w3.org/Graphics/SVG/1.1/DTD/svg11.dtd">
<svg version="1.1" id="Layer_1" xmlns="http://www.w3.org/2000/svg" xmlns:xlink="http://www.w3.org/1999/xlink" x="0px" y="0px"
	 viewBox="0 0 350 230" enable-background="new 0 0 350 230" xml:space="preserve">
<g>
	<path fill="#B3B3B3" d="M77.5,128.4c0,1.9,0,3.9,0,5.9c-4.2,0-8.3,0-12.5,0c0-0.4,0-0.8,0-1.3c1.8,0,3.7,0,5.6,0
		c0-16.7,0-33.4,0-50.2c-1.9,0-3.7,0-5.6,0c0-0.5,0-0.9,0-1.4c0.2,0,0.4,0,0.6,0c2.2,0,4.3,0,6.5,0c1,0,2.1-0.2,3-0.5
		c0.8-0.3,1.6-0.8,2.4-1.3c0,9.1,0,18.3,0,27.6c0.6-1.1,1.1-2.1,1.7-3c1.9-2.7,4.4-4.7,7.7-5.2c3.7-0.6,7.1,0.3,10.1,2.4
		c4.5,3.2,7.1,7.6,8,13c0.9,5.6-0.5,10.8-4.2,15.1c-3.5,4.2-8.1,6-13.5,5.6c-4.2-0.3-7.3-2.7-9.4-6.3c-0.1-0.2-0.2-0.3-0.3-0.5
		C77.6,128.3,77.6,128.3,77.5,128.4z M97.5,118c-0.1-3-0.2-5.4-0.4-7.8c-0.1-2.1-0.5-4.2-1.4-6.1s-2.3-3.2-4.4-3.7
		c-1.6-0.4-3.3-0.4-4.9,0.1c-5,1.3-8.5,6.3-8.8,11.2c-0.2,4-0.1,8,0,12c0.1,2.8,1.3,5.2,3.3,7.1c2.7,2.6,5.9,3.5,9.6,3
		c3-0.4,5-2,5.8-4.9c0.3-0.9,0.5-1.7,0.6-2.6C97.1,123.3,97.3,120.4,97.5,118z"/>
	<path fill="#B3B3B3" d="M171.6,133c0-0.3,0-0.5,0-0.7c0-8.7,0-17.5,0-26.2c0-0.7-0.1-1.3-0.2-2c-0.6-2.6-2.5-3.9-5.2-3.7
		c-3,0.2-5.4,1.7-7.4,3.9c-1.5,1.6-2.6,3.5-3.6,5.5c-0.1,0.2-0.1,0.4-0.1,0.6c0,7.3,0,14.7,0,22c0,0.2,0,0.3,0,0.5c2,0,4.1,0,6.1,0
		c0,0.5,0,0.9,0,1.3c-6.5,0-12.9,0-19.4,0c0-0.4,0-0.8,0-1.3c2.1,0,4.2,0,6.3,0c0-10.3,0-20.5,0-30.8c-2.1,0-4.2,0-6.3,0
		c0-0.5,0-0.9,0-1.3c0.2,0,0.4,0,0.7,0c2.7,0,5.3,0,8,0c1.7,0,3.3-0.2,4.6-1.6c0,2.7,0,5.4,0,8.1h0.1c0.1-0.2,0.2-0.4,0.3-0.5
		c1.1-1.9,2.4-3.5,4.1-4.9c2.7-2.2,5.8-3.1,9.3-2.8c1.7,0.1,3.3,0.4,4.9,1.1c2.7,1.2,4.2,3.4,4.6,6.3c0.1,0.6,0.1,1.3,0.1,1.9
		c0,7.9,0,15.8,0,23.7c0,0.2,0,0.4,0,0.7c2.2,0,4.3,0,6.4,0c0,0.5,0,0.8,0,1.3c-6.5,0-13.1,0-19.6,0c0-0.4,0-0.8,0-1.3
		C167.4,133,169.5,133,171.6,133z"/>
	<path fill="#B3B3B3" d="M241.9,100.8c0,0.3,0,0.6,0,0.8c0,0.4-0.1,0.5-0.5,0.5c-2.1,0-4.2,0-6.2,0c-0.5,0-0.6,0.1-0.8,0.6
		c-3.2,9.6-6.5,19.1-9.8,28.7c-1.7,4.9-4.1,9.5-7.2,13.6c-1.2,1.6-2.5,3.1-4.2,4.2c-2.1,1.4-4.4,1.9-6.9,1.5
		c-1.9-0.2-3.6-1.9-3.9-3.8c-0.2-1.5,0.6-3.1,2-3.8s3.3-0.3,4.3,0.8c1,1.2,0.9,3-0.3,4.1c-0.3,0.3-0.8,0.6-0.6,1.1s0.7,0.5,1.2,0.5
		c1.4,0,2.4-0.7,3.3-1.6c1.6-1.5,2.7-3.5,3.3-5.6c1.4-4.5,2.8-9,4.1-13.6c2.3-7.9,4.5-15.8,6.8-23.7c0.3-1,0.6-2,1-3.1
		c-2.5,0-5,0-7.5,0c0-0.5,0-0.9,0-1.4c0.2,0,0.4,0,0.6,0c2.2,0,4.3,0,6.5,0c0.6,0,0.9-0.2,1.1-0.7c1.9-5.2,4.6-9.9,8.4-14
		c2-2.2,4.3-4.1,6.9-5.5c1.9-1,3.9-1.5,6-1.5c2.4,0.1,4.6,1.8,5.1,3.9c0.3,1.6-0.3,3.3-1.5,4.1c-1.3,0.8-3.2,0.9-4.4,0
		c-1.7-1.2-2.4-3.9-0.7-5.6c0.1-0.1,0.1-0.2,0.2-0.2c0.4-0.5,0.2-0.9-0.4-1c-1-0.2-1.8,0.1-2.6,0.6c-1.2,0.7-2.1,1.7-2.9,2.8
		c-2.6,3.5-4.4,7.5-5.7,11.6c-0.6,1.8-1.2,3.6-1.8,5.5C237.3,100.8,239.6,100.8,241.9,100.8z"/>
	<path fill="#B3B3B3" d="M118,114c0,3.1-0.1,6.1,0,9.2c0,1.5,0.3,3.1,0.5,4.6c0.1,0.8,0.5,1.7,0.9,2.4c1.4,2.6,3.7,3.7,6.5,3.7
		c6.8,0.1,11.9-4,13.3-10.7c0-0.2,0.1-0.3,0.1-0.5c0.4,0,0.8,0,1.3,0c-0.1,0.4-0.1,0.8-0.2,1.2c-1.5,5.6-4.7,9.5-10.4,10.9
		c-7.1,1.7-15.1-1.2-18.4-9.4c-3.4-8.5-0.9-17.3,5.2-22.8c2.5-2.3,5.4-3.5,8.8-3.5c3,0.1,5.6,1.1,7.8,3c3.1,2.5,5.2,5.8,6.2,9.6
		c0.1,0.5,0.2,1,0.2,1.6c0,0.5-0.2,0.8-0.7,0.8c-0.2,0-0.4,0-0.7,0c-6.6,0-13.3,0-19.9,0C118.5,114,118.3,114,118,114z M118,112.6
		c0.3,0,0.5,0,0.7,0c4,0,7.9,0,11.9,0c1.7,0,1.5,0.1,1.6-1.5c0-2-0.1-4.1-0.7-6.1c-0.6-1.9-1.6-3.4-3.5-4.2c-3.6-1.5-7.5,0.2-9,3.8
		C117.9,107.2,118,109.9,118,112.6z"/>
	<path fill="#B3B3B3" d="M192.6,114c0,0.2,0,0.3,0,0.4c0,3.4,0,6.7,0.1,10.1c0,1.9,0.4,3.8,1.2,5.5c1.1,2.3,3.1,3.6,5.6,3.8
		c7,0.7,12.8-3.4,14.3-10.3c0.2-1,0.3-1.1,1.5-0.8c-0.2,0.8-0.4,1.6-0.6,2.4c-1.7,5-4.9,8.4-10.1,9.7c-7.5,1.8-15.7-1.5-18.6-10.1
		c-2.9-8.3-1-15.7,5.2-21.9c2.5-2.5,5.5-3.8,9.1-3.7c2.4,0.1,4.7,0.8,6.7,2.2c3.8,2.6,6.2,6.3,7.4,10.8c0.1,0.4,0.1,0.8,0.2,1.2
		c0,0.5-0.2,0.8-0.7,0.8c-0.2,0-0.4,0-0.7,0c-6.6,0-13.3,0-19.9,0C193.1,114,192.9,114,192.6,114z M192.6,112.6
		c0.1,0,0.1,0.1,0.2,0.1c4.5,0,8.9,0,13.4,0c0.5,0,0.6-0.3,0.6-0.7c0-0.6,0-1.2,0-1.8c-0.1-2-0.2-3.9-1-5.8
		c-0.6-1.5-1.5-2.7-3.1-3.4c-3.6-1.5-7.6,0-9.1,3.6C192.5,107.1,192.5,109.8,192.6,112.6z"/>
	<path fill="#B3B3B3" d="M273.4,89.5c0,3.7,0,7.5,0,11.3c3.8,0,7.5,0,11.2,0c0,0.5,0,0.9,0,1.3c-3.7,0-7.4,0-11.2,0
		c0,0.3,0,0.4,0,0.6c0,9,0,18,0,27c0,0.4,0,0.7,0.1,1.1c0.4,2.1,1.5,3,3.6,3c2.7,0.1,4.5-1.2,5.8-3.4c0.2-0.4,0.5-0.8,0.6-1.3
		c0.1-0.4,0.3-0.5,0.7-0.4c0.2,0.1,0.4,0.1,0.7,0.2c-0.6,1.9-1.7,3.3-3.2,4.5c-1.4,1-3,1.6-4.7,1.7c-1.9,0.1-3.8,0-5.6-0.5
		c-3.2-0.9-4.8-3.1-4.8-6.4c0-8.4,0-16.9,0-25.3c0-0.2,0-0.5,0-0.7c-2.4,0-4.7,0-7.1,0c0-0.4,0-0.8,0-1.4c0.6,0,1.1,0,1.7,0
		c2-0.1,4-0.4,5.8-1.5c1.9-1.1,3.1-2.7,3.9-4.6c0.6-1.5,0.9-3,1.3-4.5C272.5,89.4,272.5,89.3,273.4,89.5z"/>
	<path fill="#B3B3B3" d="M248,132.9c0-10.3,0-20.5,0-30.8c-0.9,0-1.8,0-2.7,0c0-0.5,0-0.8,0-1.3c0.2,0,0.4,0,0.6,0
		c1.6,0,3.2,0,4.8-0.1c1.5-0.1,2.9-0.5,4.2-1.6c0,11.4,0,22.6,0,33.9c2.2,0,4.3,0,6.5,0c0,0.4,0,0.8,0,1.3c-6.6,0-13.2,0-19.8,0
		c0-0.4,0-0.8,0-1.3C243.7,132.9,245.9,132.9,248,132.9z"/>
	<path fill="#B3B3B3" d="M138.2,150.2c0-2.5,0-4.9,0-7.5c0.3,0.2,0.6,0.3,0.8,0.5c1.6,1.9,3.3,3.7,4.9,5.6c0.1,0.1,0.2,0.2,0.4,0.4
		c0-2.2,0-4.3,0-6.4c0.2,0,0.4,0,0.6,0c0,2.5,0,4.9,0,7.5c-0.3-0.2-0.6-0.3-0.8-0.5c-1.6-1.8-3.2-3.7-4.9-5.6
		c-0.1-0.1-0.2-0.2-0.4-0.5c0,0.3,0,0.5,0,0.7c0,1.8,0,3.5,0,5.3C138.8,150.2,138.7,150.3,138.2,150.2z"/>
	<path fill="#B3B3B3" d="M194.2,146.6c0,2.1-1.7,3.8-3.9,3.8s-4-1.7-3.9-3.8c0-2.1,1.7-3.8,3.9-3.8
		C192.4,142.7,194.2,144.4,194.2,146.6z M190.3,149.8c1.8,0,3.3-1.4,3.3-3.3c0-1.8-1.4-3.2-3.3-3.2c-1.8,0-3.3,1.4-3.3,3.2
		C186.9,148.4,188.4,149.8,190.3,149.8z"/>
	<path fill="#B3B3B3" d="M91.3,143.8c0,2.2,0,4.3,0,6.4c-0.3,0.1-0.6,0.2-0.6-0.3c0-2.3,0-4.6,0-6.8c0-0.1,0-0.1,0.1-0.3
		c0.3,0.2,0.5,0.3,0.7,0.4c1.6,1.8,3.2,3.6,4.7,5.4c0.2,0.2,0.3,0.3,0.6,0.6c0-2.2,0-4.3,0-6.4c0.2,0,0.4,0,0.6,0c0,2.5,0,4.9,0,7.6
		c-0.3-0.2-0.6-0.3-0.7-0.5c-1.6-1.8-3.2-3.7-4.9-5.6C91.6,144.2,91.5,144.1,91.3,143.8z"/>
	<path fill="#B3B3B3" d="M118.2,146.8c0,1.1,0,2.2,0,3.4c-0.2,0-0.4,0-0.6,0c0-2.5,0-4.9,0-7.5c1,0.1,2,0.1,3,0.2
		c0.8,0.1,1.3,0.7,1.4,1.5c0.1,0.9-0.2,1.5-1,1.9c-0.1,0.1-0.2,0.1-0.3,0.1c0.8,1.2,1.6,2.4,2.5,3.6c-0.5,0.2-0.7,0.1-0.9-0.3
		c-0.4-0.6-0.8-1.2-1.2-1.8C120.5,146.9,119.5,146.5,118.2,146.8z M118.2,146.2c0.6,0,1.1,0,1.6,0c0.1,0,0.3,0,0.4-0.1
		c0.7-0.2,1.1-0.6,1.1-1.3s-0.3-1.2-1.1-1.3c-0.6-0.1-1.3-0.1-2-0.2C118.2,144.3,118.2,145.2,118.2,146.2z"/>
	<path fill="#B3B3B3" d="M133.7,150.2c-0.4,0.2-0.6,0-0.8-0.3c-0.3-0.6-0.5-1.2-0.8-1.8c-0.1-0.1-0.3-0.3-0.5-0.3c-1,0-2,0-2.9,0
		c-0.2,0-0.4,0.2-0.5,0.3c-0.3,0.6-0.6,1.2-0.9,1.9c-0.1,0.3-0.3,0.4-0.7,0.3c0.1-0.2,0.1-0.4,0.2-0.5c1-2.1,2-4.3,3-6.4
		c0.1-0.2,0.2-0.3,0.3-0.4c0.1,0.1,0.3,0.2,0.4,0.4c1,2.2,2,4.4,3.1,6.6C133.6,150,133.6,150.1,133.7,150.2z M130.2,143.8
		c-0.5,1.2-1,2.3-1.5,3.4c1.1,0,2,0,3.1,0C131.2,146,130.7,145,130.2,143.8z"/>
	<path fill="#B3B3B3" d="M86.2,150.2c-0.4,0.2-0.6,0-0.8-0.3c-0.3-0.6-0.5-1.2-0.8-1.8c-0.1-0.2-0.3-0.3-0.5-0.3c-0.9,0-1.9,0-2.8,0
		c-0.3,0-0.5,0.1-0.6,0.4c-0.3,0.6-0.5,1.2-0.8,1.8c-0.2,0.4-0.2,0.4-0.7,0.3c0.1-0.2,0.1-0.3,0.2-0.4c1-2.2,2-4.4,3-6.6
		c0.1-0.2,0.2-0.3,0.4-0.4c0.1,0.1,0.3,0.3,0.4,0.4C84,145.5,85.1,147.8,86.2,150.2z M82.6,143.8c-0.5,1.2-1,2.3-1.5,3.4
		c1.1,0,2,0,3.1,0C83.6,146,83.1,145,82.6,143.8z"/>
	<path fill="#B3B3B3" d="M182,149.2c-0.1,0.2-0.2,0.5-0.4,0.6c-1.4,0.7-2.8,0.8-4.2,0.2c-1.7-0.8-2.5-2.6-2-4.5
		c0.5-1.8,2.3-3,4.2-2.8c0.6,0.1,1.2,0.3,1.8,0.4c0.4,0.1,0.5,0.4,0.4,0.7c-0.9-0.2-1.7-0.5-2.6-0.5c-1.7-0.1-3.1,1.2-3.2,2.8
		c-0.2,1.8,0.8,3.3,2.5,3.6c1,0.2,1.9,0,2.8-0.4c0.2-0.1,0.4-0.2,0.5-0.2C181.9,149.2,181.9,149.2,182,149.2z"/>
	<path fill="#B3B3B3" d="M156.3,143.9c-0.7-0.2-1.3-0.4-2-0.5c-1.4-0.2-2.6,0.2-3.4,1.5c-0.7,1.1-0.6,2.7,0.1,3.7
		c0.9,1.2,2.2,1.5,3.5,1.2c0.6-0.1,1.2-0.4,1.8-0.6c0.1,0.4,0,0.6-0.4,0.7c-1.4,0.6-2.8,0.7-4.2,0c-1.6-0.8-2.3-2.7-1.8-4.5
		c0.5-1.7,2.3-2.8,4.1-2.6c0.6,0.1,1.2,0.3,1.7,0.4C156.3,143.3,156.5,143.5,156.3,143.9z"/>
	<path fill="#B3B3B3" d="M170.4,143.8c-0.4-0.2-0.8-0.4-1.2-0.4c-0.5,0-1,0-1.4,0.2c-0.8,0.5-0.8,1.7,0,2.1c0.4,0.3,1,0.4,1.4,0.6
		c1.2,0.5,1.7,1.4,1.4,2.5s-1.3,1.7-2.6,1.5c-0.3-0.1-0.7-0.2-1-0.3c-0.5-0.2-0.5-0.3-0.4-0.9c0.3,0.2,0.6,0.3,0.9,0.5
		c0.5,0.3,1.1,0.3,1.6,0.1s0.8-0.7,0.9-1.3c0-0.6-0.2-1-0.7-1.2s-1-0.4-1.4-0.6c-1.2-0.5-1.6-1.3-1.3-2.3s1.3-1.6,2.4-1.4
		c0.3,0,0.6,0.1,0.8,0.2C170.5,143.2,170.5,143.2,170.4,143.8z"/>
	<path fill="#B3B3B3" d="M74.6,143.8c-0.4-0.1-0.8-0.4-1.2-0.4c-0.5,0-1,0-1.4,0.3c-0.8,0.5-0.8,1.6,0.1,2.1
		c0.4,0.3,0.9,0.4,1.4,0.6c1.3,0.5,1.8,1.4,1.4,2.6c-0.4,1.1-1.5,1.7-2.8,1.3c-0.3-0.1-0.5-0.2-0.8-0.3c-0.4-0.2-0.5-0.4-0.4-0.9
		c0.2,0.1,0.5,0.3,0.7,0.4c0.6,0.3,1.2,0.4,1.8,0.1c0.5-0.2,0.8-0.6,0.8-1.2c0.1-0.6-0.2-1-0.7-1.3c-0.5-0.2-0.9-0.4-1.4-0.6
		c-1.2-0.5-1.7-1.3-1.3-2.4c0.3-1,1.4-1.6,2.5-1.4c0.3,0,0.6,0.2,0.9,0.2C74.7,143.1,74.7,143.4,74.6,143.8z"/>
	<path fill="#B3B3B3" d="M109.8,143.4c0,0.9,0,1.8,0,2.8c0.8,0,1.7,0,2.5,0c0.3,0,0.5,0,0.4,0.5c-0.9,0-1.9,0-2.9,0
		c0,1.2,0,2.4,0,3.6c-0.3,0-0.6,0.2-0.6-0.2c0-2.4,0-4.7,0-7.1c1.3,0,2.5,0,3.8,0c0.1,0.3,0,0.5-0.4,0.5
		C111.7,143.3,110.8,143.4,109.8,143.4z"/>
	<path fill="#B3B3B3" d="M161.1,150.2c0-2.5,0-4.9,0-7.3c0.2,0,0.3,0,0.5,0c0,0.1,0,0.3,0,0.4c0,2.2,0,4.3,0,6.5
		C161.7,150.2,161.6,150.4,161.1,150.2z"/>
</g>
</svg>
