<?xml version="1.0" encoding="utf-8"?>
<!-- Generator: Adobe Illustrator 17.1.0, SVG Export Plug-In . SVG Version: 6.00 Build 0)  -->
<!DOCTYPE svg PUBLIC "-//W3C//DTD SVG 1.1//EN" "http://www.w3.org/Graphics/SVG/1.1/DTD/svg11.dtd">
<svg version="1.1" id="Layer_1" xmlns="http://www.w3.org/2000/svg" xmlns:xlink="http://www.w3.org/1999/xlink" x="0px" y="0px"
	 viewBox="0 0 350 230" enable-background="new 0 0 350 230" xml:space="preserve">
<g>
	<path fill="#B3B3B3" d="M264.8,103.4c0,8.7,0,17.5,0,26.2c-1.1,0-2.2,0-3.3,0c0-9.7,0-19.5,0-29.3c1.3,0,2.6,0.1,3.9,0
		c1.2-0.1,1.8,0.3,2.4,1.3c5,8.3,10.1,16.5,15.1,24.8c0.1,0.1,0.2,0.2,0.4,0.5c0-8.9,0-17.7,0-26.5c1.1,0,2.2,0,3.3,0
		c0,9.8,0,19.5,0,29.3c-0.2,0-0.3,0.1-0.5,0.1c-1.5,0-3,0-4.5,0c-0.4,0-0.6-0.1-0.7-0.4c-4.9-7.9-9.7-15.8-14.6-23.7
		c-0.4-0.7-0.9-1.4-1.3-2.2C264.9,103.4,264.9,103.4,264.8,103.4z"/>
	<path fill="#B3B3B3" d="M218,129.7c-1.7,0-3.4,0-5.1,0c-0.2,0-0.5-0.3-0.6-0.5c-2.2-3.5-4.3-6.9-6.4-10.4c-3.1-5-6.1-10-9.2-15
		c-0.1-0.1-0.2-0.3-0.4-0.6c0,8.9,0,17.6,0,26.4c-1.1,0-2.2,0-3.3,0c0-9.8,0-19.5,0-29.3c0.6,0,1.1,0,1.7,0c1.1,0,2.1,0,3.2,0
		c0.4,0,0.6,0.1,0.8,0.5c3.9,6.3,7.7,12.6,11.6,19c1.4,2.2,2.7,4.4,4.1,6.7c0.1,0.1,0.2,0.2,0.3,0.5c0-8.9,0-17.7,0-26.5
		c1.1,0,2.2,0,3.3,0C218,110.1,218,119.8,218,129.7z"/>
	<path fill="#B3B3B3" d="M257.8,114.8c0,3.3,0,6.6-0.8,9.8c-0.1,0.4-0.2,0.7-0.3,1.1c-0.5,1.7-1.6,2.8-3.3,3.3
		c-1.8,0.6-3.7,0.8-5.6,0.9c-3,0.1-6.1,0.1-9.1-0.5c-0.4-0.1-0.8-0.2-1.2-0.3c-2.6-0.6-3.7-2.5-4.1-4.9c-0.3-2.2-0.6-4.5-0.7-6.8
		c-0.1-3.2,0-6.5,0.2-9.7c0-1.1,0.4-2.2,0.8-3.2c0.9-2.3,2.8-3.4,5.1-3.9c3.1-0.7,6.2-0.7,9.3-0.5c1.5,0.1,3,0.4,4.5,0.7
		c2.5,0.5,4,2.1,4.4,4.6c0.3,2.2,0.5,4.4,0.7,6.6C257.8,112.9,257.8,113.9,257.8,114.8z M254.7,114.8h-0.1c0-1.3,0-2.6,0-3.8
		c-0.1-1.4-0.1-2.7-0.3-4.1c-0.3-1.9-1.3-3.2-3.3-3.5c-2.3-0.4-4.7-0.5-7-0.4c-1.8,0-3.6,0.1-5.4,0.7c-1,0.3-1.7,1-1.8,2
		c-0.3,2.1-0.5,4.2-0.6,6.3c-0.2,3.8-0.1,7.6,0.4,11.3c0.3,2.3,1,3.1,3.2,3.4c1.4,0.2,2.9,0.4,4.4,0.4c2.3,0.1,4.7,0,7-0.4
		c2.2-0.4,2.7-0.9,3.1-3.1c0-0.2,0.1-0.4,0.1-0.6C254.3,120.3,254.5,117.5,254.7,114.8z"/>
	<path fill="#B3B3B3" d="M88.9,114.2c0.2-2.5,0.2-5.1,0.5-7.6c0.4-3.3,2.4-5.2,5.6-5.9c3.2-0.7,6.4-0.8,9.6-0.5
		c1.7,0.1,3.4,0.5,5,0.9c1.7,0.4,2.8,1.6,3.3,3.4c0.7,2.2,0.9,4.4,1,6.6c0.2,4.3,0.2,8.5-0.5,12.7c-0.1,0.7-0.3,1.4-0.5,2.1
		c-0.5,1.6-1.5,2.7-3.1,3.1c-1.6,0.4-3.3,0.8-5,0.9c-3.3,0.3-6.6,0.2-9.8-0.4c-0.4-0.1-0.8-0.2-1.3-0.3c-2.8-0.7-3.7-2.8-4.2-5.3
		C89.1,120.7,89,117.4,88.9,114.2z M111,114.5c-0.1,0-0.1,0-0.2,0c0-1.2,0-2.4,0-3.5c0-1.2-0.1-2.4-0.2-3.5
		c-0.3-2.7-1.3-3.7-3.9-4.1c-1.3-0.2-2.6-0.3-3.9-0.4c-2.4-0.1-4.8,0-7.2,0.5c-1.6,0.3-2.5,1.1-2.7,2.8c0,0.3-0.1,0.6-0.2,0.9
		c-0.6,5.3-0.6,10.6,0,15.9c0.3,2.7,0.8,3.3,3.5,3.8c3.6,0.6,7.3,0.6,10.9,0c2.3-0.4,3-1,3.3-3.3C110.6,120.4,110.8,117.4,111,114.5
		z"/>
	<path fill="#B3B3B3" d="M164.2,114.6c0.1-2.5,0.1-5,0.4-7.5c0.2-2.1,1-4,2.8-5.2c1.2-0.8,2.5-1.2,3.8-1.4c4.2-0.6,8.3-0.7,12.5,0.2
		c0.6,0.1,1.1,0.3,1.6,0.5c1.4,0.5,2.3,1.5,2.8,2.9c0.7,2,0.9,4.1,1.1,6.2c0.2,3.9,0.2,7.8-0.2,11.7c-0.1,1.3-0.4,2.5-0.8,3.8
		c-0.4,1.6-1.5,2.8-3.1,3.2c-1.6,0.4-3.3,0.8-5,0.9c-3.3,0.3-6.6,0.2-9.9-0.4c-0.6-0.1-1.2-0.3-1.8-0.5c-1.5-0.5-2.5-1.6-3-3.1
		c-0.7-2.2-0.9-4.4-1-6.6c-0.1-1.5,0-3.1,0-4.6C164.3,114.6,164.2,114.6,164.2,114.6z M186.2,114.4c-0.1-2.5-0.1-4.8-0.4-7
		c-0.2-2.6-1.2-3.6-3.7-4.1c-3.7-0.7-7.4-0.6-11.1,0c-1.7,0.3-2.9,1-3.1,2.9c0,0.3-0.1,0.7-0.2,1c-0.5,3.5-0.4,6.9-0.3,10.4
		c0.1,2.1,0.3,4.2,0.5,6.2c0.1,1.6,1,2.6,2.7,2.9c0.2,0,0.3,0.1,0.5,0.1c2.8,0.5,5.7,0.5,8.5,0.3c1.2-0.1,2.5-0.3,3.7-0.6
		c1.1-0.2,1.8-0.9,2-2c0.1-0.6,0.3-1.3,0.3-1.9C185.9,119.7,186,116.9,186.2,114.4z"/>
	<path fill="#B3B3B3" d="M86.8,109.3c-1.2,0-2.2,0-3.3,0c0-0.8-0.1-1.7-0.1-2.5c0-0.2,0-0.4-0.1-0.6c-0.4-2.3-1-3-3.4-3.2
		c-3.3-0.3-6.5-0.2-9.7,0.3c-1.5,0.3-2.5,1.2-2.7,2.7c-0.2,1.6-0.4,3.2-0.4,4.8c0,2.7,0.1,5.4,0.2,8.1c0.1,1.6,0.3,3.2,0.5,4.7
		c0.2,1.4,1,2.4,2.4,2.7c1.4,0.3,2.8,0.5,4.1,0.6c2.3,0.1,4.6,0.1,6.9-0.4c1.8-0.3,2.5-1.1,2.8-2.9c0.1-1,0.1-2,0.2-3
		c0-0.3,0-0.7,0-1c1.1,0,2.2,0,3.3,0c0,2.5,0,5-1,7.3c-0.5,1.2-1.5,1.8-2.7,2c-2,0.3-4,0.7-5.9,0.7c-2.3,0.1-4.7-0.1-7-0.2
		c-0.8,0-1.6-0.3-2.3-0.5c-2.6-0.7-3.7-2.7-4-5.2c-0.3-2.4-0.6-4.8-0.7-7.1c-0.1-3.2,0.1-6.3,0.1-9.5c0-2.5,1-4.5,3.2-5.7
		c1.1-0.6,2.4-1,3.6-1.2c3.6-0.6,7.1-0.7,10.7-0.2c0.3,0,0.5,0.1,0.8,0.2c2.9,0.7,4.2,1.9,4.7,5.8C86.8,107.2,86.8,108.2,86.8,109.3
		z"/>
	<path fill="#B3B3B3" d="M115.1,103.4c0-1.1,0-2.1,0-3.1c7.4,0,14.8,0,22.3,0c0,1,0,2,0,3.1c-3.1,0-6.2,0-9.4,0c0,8.8,0,17.5,0,26.2
		c-1.1,0-2.2,0-3.4,0c0-8.7,0-17.4,0-26.2C121.4,103.4,118.3,103.4,115.1,103.4z"/>
	<path fill="#B3B3B3" d="M152.1,129.6c-1.1,0-2.2,0-3.3,0c0-8.7,0-17.4,0-26.2c-3.2,0-6.4,0-9.5,0c0-1.1,0-2.1,0-3.1
		c7.4,0,14.9,0,22.3,0c0,1,0,2,0,3.1c-3.2,0-6.3,0-9.5,0C152.1,112.2,152.1,120.9,152.1,129.6z"/>
</g>
</svg>
