<?xml version="1.0" encoding="utf-8"?>
<!-- Generator: Adobe Illustrator 17.1.0, SVG Export Plug-In . SVG Version: 6.00 Build 0)  -->
<!DOCTYPE svg PUBLIC "-//W3C//DTD SVG 1.1//EN" "http://www.w3.org/Graphics/SVG/1.1/DTD/svg11.dtd">
<svg version="1.1" id="Layer_1" xmlns="http://www.w3.org/2000/svg" xmlns:xlink="http://www.w3.org/1999/xlink" x="0px" y="0px"
	 viewBox="0 0 350 230" enable-background="new 0 0 350 230" xml:space="preserve">
<g>
	<path fill="#B3B3B3" d="M74.1,131.4c-10.8,0-21.4,0-32.1,0c0-10.7,0-21.4,0-32.3c10.7,0,21.4,0,32.1,0
		C74.1,109.8,74.1,120.5,74.1,131.4z M62.9,128.6c5.5-1.5,9.7-7.6,9.5-13.9c-0.1-5.8-4.6-11.8-9.5-12.9
		C62.9,110.7,62.9,119.6,62.9,128.6z M43.9,116.4c-0.2,7.9,9.1,15,16.9,12.8C61.2,121.7,52.6,115.1,43.9,116.4z M43.9,114
		c10.5,1.7,17.4-6.8,16.8-12.8C53.1,98.9,43.6,106.2,43.9,114z"/>
	<path fill="#B3B3B3" d="M114.5,125c0,2.1,0,4.2,0,6.4c-8.1,0-16.1,0-24.4,0c0.3-0.4,0.4-0.8,0.6-0.8c2-0.5,2.6-2,2.6-3.7
		c0.1-7.7,0.1-15.5,0-23.2c0-1.7-0.6-3.3-2.6-3.7c-0.2,0-0.4-0.2-0.6-0.3c0.1-0.1,0.1-0.3,0.2-0.4c7.8,0,15.5,0,23.4,0
		c0,1.8,0,3.8,0,6.1c-0.4-0.4-0.6-0.7-0.8-0.8c-1-0.7-2-1.8-3-1.8c-3.1-0.2-6.2-0.1-9.4-0.1c0,3.5,0,7,0,10.5c2.9,0,5.9,0.1,8.8-0.1
		c0.7,0,1.3-0.9,1.9-1.4c0.2-0.2,0.4-0.4,0.8-0.9c0,2.9,0,5.4,0,8.1c-0.2-0.1-0.5-0.1-0.6-0.2c-0.8-1.6-2.2-2.2-3.8-2.2
		c-2.3-0.1-4.7,0-7.1,0c0,3.4-0.1,6.8,0.1,10.2c0,0.6,1.1,1.6,1.8,1.6c2.6,0.2,5.3,0.2,7.9-0.1c1.2-0.2,2.2-1.4,3.3-2.2
		c0.3-0.2,0.4-0.5,0.6-0.8C114.3,124.9,114.4,124.9,114.5,125z"/>
	<path fill="#B3B3B3" d="M227.1,132.3c-1.9-0.2-3.8-0.3-5.6-0.7c-3.5-0.8-5.7-3-6.3-6.5c-0.4-2.5-0.5-5.2-0.2-7.7
		c0.5-4.5,3.3-7.1,7.7-8.2c3-0.7,6-0.7,9,0c4.7,1.1,7.3,4.2,7.6,9.3c0.1,2,0,4-0.3,5.9c-0.8,4.5-3.9,7-8.8,7.6
		C229.2,132.1,228.1,132.2,227.1,132.3C227.1,132.2,227.1,132.2,227.1,132.3z M232.3,120.3c-0.3-1.5-0.5-3.6-1-5.7
		c-0.5-1.9-2.1-2.8-4.1-2.8s-3.7,0.7-4.4,2.7c-1.4,4-1.4,8.1,0,12c0.7,2,2.6,2.9,4.9,2.6c2.3-0.2,3.6-1.3,4-3.5
		C232,124.1,232.1,122.5,232.3,120.3z"/>
	<path fill="#B3B3B3" d="M253.6,110.5c0.4-0.1,0.7-0.2,1-0.2c2.8-0.4,5.6-0.7,8.6-1.1c0,0.6,0,1.1,0,1.6c0,3.5,0,7.1,0,10.6
		c0,0.7,0,1.3,0.1,2c0.4,3.8,4.5,5.6,7.6,3.3c0.3-0.2,0.5-0.7,0.5-1c0-3.6,0.1-7.2,0-10.7c0-1.7-0.7-3-2.5-3.5
		c-0.3-0.1-0.4-0.3-0.6-0.9c3.1-0.4,6.3-0.8,9.6-1.3c0,0.6,0,1.1,0,1.6c0,4.9,0,9.9,0,14.8c0,0.9,0,1.9,0.3,2.8
		c0.2,0.7,0.9,1.4,1.4,2c0.2,0.2,0.4,0.4,0.5,0.9c-2.3,0-4.7,0.1-7-0.1c-0.7-0.1-1.3-1-2.1-1.7c-1.8,1.4-4.1,2.3-6.7,2.4
		c-4.6,0.3-7.6-2.4-7.6-7c0-3.1,0-6.2,0-9.3c0-2.1-0.4-3.9-2.8-4.5c-0.1,0-0.2-0.2-0.3-0.3C253.6,110.9,253.7,110.8,253.6,110.5z"/>
	<path fill="#B3B3B3" d="M152.1,125.7c0.5,1.6-0.3,2.7-1.5,3.7c-3.8,3.1-10.7,3.6-15,1.2c-2-1.2-3.4-2.9-4-5.1
		c-1.1-3.5-1-7.1,0.3-10.5c1.7-4.3,5.2-6,9.6-6.2c1.4-0.1,2.8,0.1,4.2,0.3c4.8,1,7.6,5.3,6.9,10.6c-0.9,0-1.8,0-2.8,0
		c-3.7,0-7.4,0-11.2,0c-0.9,0-1.2,0.3-1.1,1.2c0.4,5.7,4.2,8.2,10.1,6.6C149.2,127.1,150.6,126.4,152.1,125.7z M137.8,116.9
		c2.9,0,5.8,0,8.7,0c0.1-3.4-1.3-5.3-4-5.4C139.8,111.3,138,113.3,137.8,116.9z"/>
	<path fill="#B3B3B3" d="M294.4,109.6c-0.6,0.5-0.9,0.8-1.2,1c-1.1,0.7-1.3,1.8-0.6,2.8c0.6,0.9,1.3,1.8,2.2,2.9
		c1-1.3,2-2.4,2.8-3.6c0.5-0.7,0.5-1.5-0.2-2.1c-0.2-0.2-0.3-0.5-0.5-0.9c3.1,0,6,0,8.9,0c0.1,0.1,0.2,0.2,0.2,0.3
		c-1.1,0.7-2.4,1.2-3.4,2c-1.2,0.9-2.3,1.9-3.3,3s-1.8,2.3-2.8,3.5c1.2,1.5,2.3,3.1,3.5,4.6s2.2,3.2,3.5,4.6
		c1.3,1.3,2.8,2.3,4.6,3.7c-5.1,0-9.8,0-14.8,0c0.5-0.5,0.8-0.8,1.1-1c1.1-0.8,1.3-1.7,0.5-2.9c-0.8-1.2-1.7-2.4-2.7-3.8
		c-1.2,1.7-2.5,3.3-3.5,4.9c-0.2,0.4,0.1,1.2,0.3,1.8c0.1,0.3,0.4,0.6,0.7,1c-3,0-5.7,0-8.5,0c0.1-0.3,0.2-0.7,0.3-0.8
		c2.7-1,4.3-3.3,6.1-5.4c0.9-1,1.7-2,2.5-3.1c0.2-0.3,0.3-1.1,0-1.4c-1.8-2.5-3.5-5-5.4-7.4c-0.9-1.1-2.3-1.8-3.4-2.6
		c-0.3-0.3-0.7-0.5-1.1-0.8c0.1-0.1,0.1-0.2,0.2-0.3C284.8,109.6,289.4,109.6,294.4,109.6z"/>
	<path fill="#B3B3B3" d="M175.6,116.7c-0.4-0.4-0.8-0.8-1.1-1.3c-1.4-2.2-3.4-3.4-6.1-3.5c-2.6-0.1-4.4,1-5.4,3.3
		c-1.2,2.8-1.3,5.8-0.3,8.7c0.9,2.6,3,4,6,4.1c2.8,0.1,5.3-0.9,7.7-2.3c0.5,1.7,0.3,2.4-0.9,3.4c-4.7,4.1-13,4.2-17,0.2
		c-0.8-0.7-1.5-1.6-1.9-2.6c-1.9-4.5-1.8-8.9,0.6-13.2c1.9-3.3,5.2-4.6,8.7-4.6c2.9,0,5.9,0.7,8.8,1c0.8,0.1,1.1,0.6,1.1,1.5
		c-0.1,1.7,0,3.4,0,5.2C175.9,116.6,175.7,116.6,175.6,116.7z"/>
	<path fill="#B3B3B3" d="M253.3,131.4c-4.1,0-8.2,0-12.5,0c0.3-0.4,0.4-0.8,0.6-0.8c2.2-0.6,2.6-2.2,2.6-4.1c0-5.1,0-10.2,0-15.3
		c0-2.2,0-4.4,0-6.6s-0.4-4.1-2.9-4.7c-0.1,0-0.1-0.2-0.4-0.7c3.3-0.5,6.3-0.9,9.6-1.4c0,0.7,0,1.3,0,1.8c0,8.6,0,17.3,0,25.9
		c0,0.7,0,1.4,0.1,2.1c0.2,1.4,0.8,2.5,2.3,2.9c0.3,0.1,0.5,0.3,0.7,0.5C253.4,131.1,253.3,131.2,253.3,131.4z"/>
	<path fill="#B3B3B3" d="M129.5,131.4c-4.4,0-8.6,0-13.1,0c0.5-0.4,0.6-0.8,0.9-0.8c1.7-0.5,2.5-1.8,2.5-3.4
		c0.1-7.9,0.1-15.8,0-23.8c0-1.6-0.7-3-2.6-3.4c-0.3-0.1-0.5-0.2-0.7-0.3c0.1-0.2,0.1-0.4,0.2-0.5c3.1-0.4,6.2-0.9,9.5-1.3
		c0,0.7,0,1.3,0,1.8c0,8.8,0,17.6,0,26.4c0,2.1,0.3,4,2.8,4.6C129.1,130.6,129.2,130.9,129.5,131.4z"/>
	<path fill="#B3B3B3" d="M180.5,112.7c-1,0-1.8,0-3,0c3.2-3.3,6.1-6.4,9.3-9.7c0,2.4,0,4.4,0,6.5c2.4,0,4.6,0,6.9,0
		c0.3,2.3-0.4,3.2-2.5,3.2c-1.3,0-2.5,0-3.8,0c-0.1,0-0.2,0.1-0.5,0.1c0,0.9,0,2,0,3c0,2.5,0,4.9,0,7.4c0,4.4,2.3,5.9,6.4,4.3
		c0.2-0.1,0.4-0.1,0.7-0.2c0.4,1.6-0.2,2.6-1.5,3.5c-2.5,1.6-5.1,1.9-7.9,1.1c-2.6-0.8-4.1-3-4.1-6.2
		C180.5,121.4,180.5,117.1,180.5,112.7z"/>
	<path fill="#B3B3B3" d="M214.1,109c-0.6,1.9-1,3.7-1.6,5.5c-0.1,0.3-0.7,0.5-1.1,0.6c-5.4,0.3-6,0.9-6,6.3c0,1.6,0,3.3,0,4.9
		c0,2,0.5,3.7,2.7,4.2c0.2,0,0.3,0.3,0.6,0.7c-4.3,0-8.4,0-12.8,0c0.3-0.3,0.5-0.7,0.7-0.7c1.9-0.5,2.5-2,2.5-3.7
		c0.1-4,0.1-7.9,0-11.9c0-1.7-0.6-3.2-2.5-3.7c-0.2,0-0.3-0.2-0.5-0.3c-0.1-0.1-0.1-0.3-0.1-0.6c3-0.4,6-0.8,9.2-1.3
		c0,1.4,0,2.7,0,4C207.5,110.1,210,108,214.1,109z"/>
</g>
</svg>
