<?xml version="1.0" encoding="utf-8"?>
<!-- Generator: Adobe Illustrator 17.1.0, SVG Export Plug-In . SVG Version: 6.00 Build 0)  -->
<!DOCTYPE svg PUBLIC "-//W3C//DTD SVG 1.1//EN" "http://www.w3.org/Graphics/SVG/1.1/DTD/svg11.dtd">
<svg version="1.1" id="Layer_1" xmlns="http://www.w3.org/2000/svg" xmlns:xlink="http://www.w3.org/1999/xlink" x="0px" y="0px"
	 viewBox="0 0 350 230" enable-background="new 0 0 350 230" xml:space="preserve">
<path fill="#B3B3B3" d="M212.8,72.5h-75.6c-2.6,0-4.7,2.1-4.7,4.7v75.6c0,2.6,2.1,4.7,4.7,4.7h40.7v-32.9h-11.1v-12.8h11.1v-9.5
	c0-11,6.7-17,16.5-17c4.7,0,8.7,0.3,9.9,0.5v11.5h-6.8c-5.3,0-6.4,2.5-6.4,6.2v8.2h12.7l-1.7,12.8h-11v32.9h21.7
	c2.6,0,4.7-2.1,4.7-4.7V77.2C217.5,74.6,215.4,72.5,212.8,72.5z"/>
</svg>
