<?xml version="1.0" encoding="utf-8"?>
<!-- Generator: Adobe Illustrator 17.1.0, SVG Export Plug-In . SVG Version: 6.00 Build 0)  -->
<!DOCTYPE svg PUBLIC "-//W3C//DTD SVG 1.1//EN" "http://www.w3.org/Graphics/SVG/1.1/DTD/svg11.dtd">
<svg version="1.1" id="Layer_1" xmlns="http://www.w3.org/2000/svg" xmlns:xlink="http://www.w3.org/1999/xlink" x="0px" y="0px"
	 viewBox="0 0 350 230" enable-background="new 0 0 350 230" xml:space="preserve">
<g>
	<g>
		<g>
			<g>
				<path fill="#B3B3B3" d="M46.7,172.9c-2.8,0-5.1-1.6-5.1-3.6c0-0.7,0.4-1.2,1.1-1.2c0.1,0,0.1,0,0.1,0c0.9,0,1.2,0.7,1.6,1.5
					c0.5,1,1.1,2.3,3.3,2.3c2.4,0,3.6-2,3.6-5.9v-18.6c0-1.9-0.5-2.4-1.5-2.6v-0.3h3.7c0.5,0,1,0,1.4,0c0.6,0,1.1,0,1.5,0h0.8
					c0,0.1,0,0.3,0,0.3c-1,0.2-1.5,0.6-1.5,2.6c0,0,0,12.3,0,14.8C55.8,169,52.5,172.9,46.7,172.9z M202.6,169.9
					c-3.7,0-6.9-1.2-9.1-3.7c-2.1-2.3-3.3-5.5-3.3-9.1c0-4.3,1.6-7.9,4.7-10.2c2.4-1.8,5.7-2.9,9-2.9c4.6,0,7.6,2.1,7.6,4.1
					c0,0.8-0.4,1.6-1.4,1.6c-1,0-1.4-0.7-1.6-1.5c-0.6-1.9-2-2.9-4.4-2.9c-3.3,0-8.8,1.5-8.8,11.6c0,6.9,3.8,11.1,9.9,11.1
					c3.3,0,5.3-0.9,6.7-1.6l0.2,0.3C210.4,168.3,208.1,169.9,202.6,169.9z M119.6,169.9c-7.4,0-12.7-5.3-12.7-12.8
					c0-9.6,8.1-13.1,13.6-13.1c3.8,0,7,1.2,9.3,3.6c2.2,2.3,3.4,5.5,3.4,9c0,4.2-1.5,7.7-4.2,10.1
					C126.7,168.8,123.3,169.9,119.6,169.9z M120.2,145.5c-5.3,0-8,3.9-8,11.5c0,5.3,2.3,11.4,8.5,11.4c5.3,0,7.7-5,7.7-9.9
					C128.4,150.4,125.3,145.5,120.2,145.5z M96.7,169.9c-3.7,0-6.9-1.2-9.1-3.7c-2.1-2.3-3.3-5.5-3.3-9.1c0-4.3,1.6-7.9,4.7-10.2
					c2.4-1.8,5.7-2.9,9-2.9c4.7,0,7.6,2.1,7.6,4.1c0,0.8-0.4,1.6-1.5,1.6c-1,0-1.3-0.7-1.6-1.5c-0.6-1.9-2-2.9-4.4-2.9
					c-3.3,0-8.8,1.5-8.8,11.6c0,6.9,3.8,11.1,9.9,11.1c3.3,0,5.3-0.9,6.7-1.6l0.2,0.3C104.5,168.3,102.1,169.9,96.7,169.9z
					 M168.2,169.9c-4.9,0-7.2-3.7-7.5-5.1l0.3-0.2c1.2,1.4,3.5,3.5,6.8,3.5c4.3,0,5-2.6,5-4.1c0-3-2.5-4.6-5.1-6.1
					c-2.8-1.7-5.6-3.4-5.6-7.1c0-5.2,5.2-6.6,8.2-6.6c4,0,6.1,2,6.1,3.9c0,0.8-0.4,1.6-1.4,1.6c-1,0-1.3-0.7-1.5-1.5
					c-0.1-0.6-0.7-2.8-3.6-2.8c-2.1,0-3.7,1.5-3.7,3.5c0,2.8,2.4,4.2,5,5.8c2.9,1.7,5.8,3.5,5.8,7.2
					C177,166.6,173.3,169.9,168.2,169.9z M234.7,169.6c-2,0-3.7-0.1-4.9-1.4c-0.9-1-2-2.9-3.1-4.8c-0.8-1.4-1.5-2.6-2.2-3.5
					c-0.8-1.1-1.5-1.7-3.1-1.7c-0.2,0-0.3,0-0.5,0h-0.1v8.1c0,1.9,0.2,2.8,1.1,2.9v0.3c-0.5,0-2.7,0-3.3,0c-1.2,0-2.1,0-2.7,0h-0.6
					v-0.3c0.8-0.2,1.1-0.8,1.1-2.9v-18.4c0-1.9-0.2-2.8-1.1-3v-0.3h8c6.6,0,9.7,1.9,9.7,5.9c0,3.4-2.6,6.4-6.3,6.9l0,0
					c1.9,0.2,3.5,3,5.1,5.8c1.5,2.5,3,5.1,4.8,6.1v0.3c-0.3,0-0.7,0-1,0C235.4,169.6,235,169.6,234.7,169.6z M222.7,145.9
					c-0.3,0-1.2,0-1.7,0.2h-0.1v10.8h0.1c0.3,0.1,0.8,0.1,1.7,0.1c3.6,0,5.4-2.1,5.4-6.2C228.2,147.4,226.4,145.9,222.7,145.9z
					 M83.2,169.6c-5.2,0-6.1-0.8-6.9-3c-0.2-0.5-0.7-1.9-1.4-3.6v-0.1h-9.8v0.1c-0.5,1.1-0.8,2.1-1.1,2.9c-0.3,0.7-0.7,1.8-0.7,2.5
					c0,0.6,0.3,0.8,0.7,0.8v0.3h-4.5v-0.3c0.7-0.2,1.1-0.5,1.5-1.6c0.4-0.9,8.5-20.8,9.4-23.1h1.9c1.3,3.2,5.4,13.3,7.7,19
					c1.1,2.8,2.1,5.1,4.3,5.7v0.3C83.8,169.6,83.5,169.6,83.2,169.6z M69.9,150.7c-0.8,2.3-2.1,5.3-3.3,8.3l-1,2.4h8.5l-0.1-0.2
					c-0.8-1.9-2.7-6.8-4.1-10.4v-0.1L69.9,150.7z M301.5,169.6c-2.4,0-4.3-0.1-5.6-1.5c-1.1-1.2-2.7-3.6-4.1-5.7
					c-0.6-0.9-1.2-1.8-1.7-2.5c-0.8-1.1-1.9-2.7-3.6-2.7c-0.1,0-0.3,0-0.4,0H286v9c0,1.9,0.2,2.8,1.1,3v0.3h-6.6v-0.3
					c0.9-0.2,1.1-1.1,1.1-3v-18.4c0-1.9-0.2-2.8-1.1-3v-0.3h5.6V156h0.1c2.1-0.2,4-2.4,8.5-7.7c1-1.1,2.1-2.4,3.3-3.8h3.2l-0.5,0.6
					c-3,3.4-7.5,8.6-9.5,10.5l-0.2,0.1l0.2,0.1c1.7,0.3,3.7,3.3,5.8,6.4c2,3,3.9,6.1,6,7v0.3c-0.2,0-0.5,0-0.7,0
					C302,169.6,301.8,169.6,301.5,169.6z M137.7,169.6v-0.3c0.8-0.2,1.1-0.8,1.1-2.9v-18.4c0-1.9-0.2-2.8-1.1-3v-0.3h3.3
					c0.3,0,1.2,0,2.2,0s1.9,0,2.2,0c5.9,0,8.9,1.9,8.9,5.5c0,1.4-0.5,4.7-4.9,5.8v0.2c3.8,0.5,6.2,2.8,6.2,6c0,4.5-3.7,7.7-9,7.7h-9
					V169.6z M145.1,157.1c-0.6,0-1.2,0-1.7,0.1h-0.1v9.1c0,1.5,0.5,1.9,2.1,1.9c3.8,0,5.5-1.9,5.5-6
					C150.8,159,148.7,157.1,145.1,157.1z M145,145.9c-0.7,0-1.2,0-1.6,0.1h-0.1v9.8h0.1c0.5,0.1,1.1,0.1,1.6,0.1
					c3.2,0,4.8-1.9,4.8-5.3C149.8,148.3,148.9,145.9,145,145.9z M259.8,169.6v-0.3c0.8-0.2,1.1-0.8,1.1-2.9v-18.4
					c0-1.9-0.2-2.8-1.1-3v-0.3h15c0.1,0.7,0.1,1.8,0.2,2.8c0.1,0.6,0.1,1.1,0.1,1.4c-0.1,0-0.2,0-0.3,0h-0.1c-0.6-1.8-2-2.5-4.9-2.5
					h-4.6v9.5h4.9c2.5,0,3.3-0.1,3.9-0.3l0.1,0.1c-0.7,1.6-1.7,2.2-3.7,2.2h-3.5c-0.6,0-1.6,0-1.6,0v9c0,1.2,0.7,1.5,1.9,1.6
					c1,0.1,1.5,0.1,2.9,0.1c3.3,0,4.8-0.8,5.8-3h0.3c0,0.3-0.1,1-0.2,1.7c-0.1,1-0.2,2.2-0.3,2.9
					C274.5,169.6,259.8,169.6,259.8,169.6z M239.5,169.6v-0.3c0.8-0.2,1.1-0.8,1.1-2.9v-18.4c0-1.9-0.2-2.8-1.1-3v-0.3h15
					c0.1,0.7,0.1,1.8,0.2,2.8c0.1,0.6,0.1,1.1,0.1,1.3c-0.1,0-0.2,0-0.3,0h-0.1c-0.6-1.8-2-2.5-4.8-2.5h-4.6v9.5h4.9
					c2.5,0,3.3-0.1,3.9-0.3l0.1,0.1c-0.7,1.6-1.7,2.2-3.7,2.2h-3.5c-0.6,0-1.6,0-1.6,0v9c0,1.2,0.7,1.5,1.9,1.6
					c1,0.1,1.5,0.1,2.9,0.1c3.2,0,4.8-0.8,5.8-3h0.3c0,0.3-0.1,1-0.2,1.7c-0.1,1-0.2,2.2-0.3,2.9
					C254.3,169.6,239.5,169.6,239.5,169.6z M158.4,145.9c0.2-0.3,0.3-0.7,0.3-0.9c0-0.8-0.5-1.2-0.8-1.6c-0.4-0.4-0.8-0.7-0.8-1.5
					c0-0.9,0.6-1.5,1.6-1.5c1.2,0,1.7,1.1,1.7,2.3c0,1.7-1.3,2.9-1.9,3.3L158.4,145.9z"/>
			</g>
		</g>
	</g>
	<g>
		<g>
			<path fill="#B3B3B3" d="M308.4,146.8c0,1.4-1.1,2.4-2.4,2.4c-1.4,0-2.4-1.1-2.4-2.4c0-1.3,1.1-2.4,2.4-2.4
				S308.4,145.5,308.4,146.8z M304.1,146.8c0,1.1,0.8,1.9,1.9,1.9c1.1,0,1.8-0.8,1.8-1.9c0-1.1-0.8-1.9-1.8-1.9
				C304.9,145,304.1,145.8,304.1,146.8z M305.6,148H305v-2.4c0.2-0.1,0.5-0.1,0.9-0.1c0.5,0,0.7,0.1,0.8,0.2
				c0.1,0.1,0.2,0.3,0.2,0.5c0,0.3-0.2,0.5-0.5,0.6v0.1c0.2,0.1,0.3,0.3,0.5,0.6c0.1,0.3,0.1,0.5,0.2,0.6h-0.6
				c-0.1-0.1-0.1-0.3-0.2-0.6s-0.2-0.4-0.5-0.4h-0.3L305.6,148L305.6,148z M305.6,146.7h0.3c0.3,0,0.6-0.1,0.6-0.3s-0.2-0.3-0.5-0.3
				c-0.2,0-0.2,0-0.3,0.1L305.6,146.7L305.6,146.7z"/>
		</g>
	</g>
	<g>
		<g>
			<path fill="#B3B3B3" d="M155.3,114.9c-11.1-19.8,5.8-39.9,5.8-39.9l0,0c0.5-0.7,1-0.3,0.9,0c0,0.1-0.1,0.2-0.1,0.3
				c-1.5,2.5-3.8,7.9-5.5,14.5c-7.1,26.2,12.5,32.8,13.6,33.2c0.3,0.1,0.7-0.4,0.1-0.6c-5-2.4-11.6-9.7-11.1-17.5
				c0.3-2.3,0.5-4.2,3.1-6.5c2.8-2.4,6.5-2.6,9.2-2.7c2.9-0.2,5.9-0.9,5.3-3.2c-0.6-2.1-5.9-2.3-10-2.8c-7.1-0.9-7.5-7.5,3.1-9.7
				c7.3-1.6,7.2-5.1,4.7-6.4c-1.6-0.8-3.3-0.8-5.2-1.4c-2.6-0.7-7.4-3.2-2.3-10.8c1.2-2,1.5-3.2,0.7-4.1c-0.2-0.3-0.6-0.3-1-0.3
				c-2,0.1-7.4,6.9-11.1,15.5c0,0-0.6,1.4-1.8,1.4c-1.2,0-2.9-0.8-3-3.9c-0.1-2.9-2.5-2.6-3.7,0.1c-1.4,2.9-3.9,11.5-1.4,19.9
				c1,3.2,2.1,4.8,0.8,5.5c-1.4,0.8-4.8-3.7-6.8-8c-1.9-4.4-2.9-0.6-3.2,0.8c-3.3,21.6,13.1,25.7,18.6,26.5
				C155.2,114.9,155.3,114.9,155.3,114.9z"/>
			<path fill="#B3B3B3" d="M204.4,106.7c5.7-6.4,2.3-18.6,0.5-18.4c-0.6,0.1-0.7,0.7-1,1.6c-1.1,3.9-4.8,6.1-4.1,4.7
				c4.3-9.3-0.7-19.3-3.1-21.6c-0.8-0.8-1.6-0.8-1.6,0.7c0.1,3.3-1,5.8-4.2,1.5c-2.7-3.6-8.4-8.4-11.8-9.7c-1.7-0.6-3.2,0-1.6,1.6
				c5.1,6.2,3.9,12.9-2.6,15.1c-1.2,0.4-2.4,0.7-3.2,1.1c-1.9,1-1.6,1.8,1.2,2.7c3.5,1,14,1.4,15.1,7.7c0.6,4-3.2,6.5-7.8,7.2
				c-5.6,1-7.6,2.9-7.6,5.2c0,4.7,7,6.8,12.8,7.2c2.9-2.8,8.6-11.1,4.4-23.3c-3.7-10.9-5.6-13.7-6-14.2c-0.1-0.2-0.3-0.4-0.3-0.6
				c-0.2-0.5,0.4-0.7,0.8-0.3c0.1,0.1,0.3,0.4,0.3,0.4s6.1,7.2,8.7,16.2c1.1,3.7,3.1,15.3-6,24.4c-2.3,2.3-5.5,4.7-10,7
				c-0.5,0.2-1,0.6-1,2.1c0,0.3,0.1,1.2,0.1,1.9c0.1,0.5,0.3,0.6,0.6,0.6c0.3,0,0.6,0,0.7-0.6c0.1-0.3,0.1-0.7,0.2-1
				c0.2-1,0.7-2.1,2.2-3c6.5-3.5,10.2-7.7,13.5-9.6C196.1,111.7,200.3,111.2,204.4,106.7z"/>
		</g>
	</g>
</g>
</svg>
