<?xml version="1.0" encoding="utf-8"?>
<!-- Generator: Adobe Illustrator 17.1.0, SVG Export Plug-In . SVG Version: 6.00 Build 0)  -->
<!DOCTYPE svg PUBLIC "-//W3C//DTD SVG 1.1//EN" "http://www.w3.org/Graphics/SVG/1.1/DTD/svg11.dtd">
<svg version="1.1" id="Layer_1" xmlns="http://www.w3.org/2000/svg" xmlns:xlink="http://www.w3.org/1999/xlink" x="0px" y="0px"
	 viewBox="0 0 350 230" enable-background="new 0 0 350 230" xml:space="preserve">
<g>
	<path fill="#B3B3B3" d="M62.3,93.6c0-0.9,0-1.7,0-2.6c0-0.1,0.2-0.2,0.3-0.3c0,0,0.1,0,0.2,0c3.8,0,7.6,0,11.4,0c0.1,0,0.2,0,0.4,0
		c2.1,9.8,4.1,19.6,6.2,29.5h0.1c0.2-0.8,0.3-1.6,0.5-2.4c1.1-5.6,2.2-11.2,3.3-16.8c0.7-3.3,1.3-6.6,2-9.9c0-0.2,0.1-0.3,0.4-0.3
		c3.8,0,7.5,0,11.3,0c0.1,0,0.2,0,0.3,0c0,0.9,0,1.8,0,2.8c-0.4,0-0.8,0-1.1,0c-0.7,0-1.1,0.2-1.2,0.9c-0.2,0.6-0.2,1.3-0.2,1.9
		c0,12.5,0,24.9,0,37.4c0,0.6,0.1,1.2,0.2,1.8c0.2,0.7,0.5,1,1.3,1c0.4,0,0.7,0,1.1,0c0,1,0,1.9,0,2.8c-4.7,0-9.4,0-14.2,0
		c0-0.9,0-1.9,0-2.8c0.5,0,1.1,0,1.6,0c1,0,1.4-0.3,1.6-1.3c0.1-0.4,0.1-0.9,0.1-1.4c0-9.7,0-19.5,0-29.2c0-0.1,0-0.3,0-0.4h-0.1
		c-0.2,0.8-0.3,1.6-0.5,2.4c-1.4,6.5-2.7,13-4.1,19.5c-0.9,4.3-1.8,8.5-2.7,12.8c-0.1,0.3-0.1,0.4-0.5,0.4c-1.2,0-2.4,0-3.6,0
		c-2.4-11.7-4.9-23.4-7.3-35.1H69c0,0.1,0,0.3,0,0.4c0,9.5,0,19,0,28.5c0,0.8,0.2,1.5,0.4,2.3c0.3,0.9,0.8,1.1,1.7,1.1
		c0.4,0,0.9,0,1.3,0c0,0.9,0,1.9,0,2.8c-3.3,0-6.6,0-9.9,0c0-0.1,0-0.1,0-0.2c0-0.8,0-1.5,0-2.3c0-0.2,0.1-0.3,0.3-0.3s0.4,0,0.6,0
		c0.8,0.1,1.3-0.3,1.6-1c0.4-0.8,0.5-1.6,0.5-2.5c0-6.5,0-13,0-19.5c0-5.6,0-11.1,0-16.7c0-0.7-0.2-1.5-0.4-2.2
		c-0.3-0.9-0.8-1.2-1.7-1.2C62.8,93.6,62.6,93.6,62.3,93.6z"/>
	<path fill="#B3B3B3" d="M193,93.6c-0.6,0-1.1,0-1.6,0c-0.7,0-1.1,0.3-1.2,1c-0.1,0.4-0.1,0.9-0.1,1.4c0,12.7,0,25.5,0,38.2
		c0,0.5,0,1,0.1,1.5c0.1,0.6,0.4,0.8,1,0.9c0.3,0,0.6,0,0.8,0c0.3,0,0.6,0,0.9,0c0,1,0,1.9,0,2.8c-4.7,0-9.5,0-14.2,0
		c0-0.9,0-1.8,0-2.8c0.4,0,0.8,0,1.1,0s0.5,0,0.8,0c0.5,0,0.9-0.3,1-0.8c0.1-0.6,0.2-1.2,0.2-1.7c0-5.7,0-11.4,0-17.1
		c0-0.4-0.1-0.4-0.5-0.4c-2.7,0-5.4,0-8.1,0c-0.3,0-0.5,0.1-0.5,0.4c0,5.8,0,11.6,0,17.4c0,0.5,0.1,0.9,0.1,1.4
		c0.1,0.6,0.4,0.8,1,0.8s1.3,0,1.9,0c0,1,0,1.9,0,2.8c-4.8,0-9.5,0-14.3,0c0-0.9,0-1.8,0-2.8c0.5,0,1,0,1.4,0c1.3,0,1.5-0.2,1.5-1.5
		c0-13.1,0-26.1,0-39.2c0-0.5,0-0.9-0.1-1.4c-0.1-0.6-0.4-0.8-1.1-0.9c-0.6,0-1.1,0-1.7,0c0-0.9,0-1.9,0-2.8c4.8,0,9.5,0,14.3,0
		c0,0.9,0,1.8,0,2.8c-0.4,0-0.8,0-1.3,0c-0.2,0-0.4,0-0.6,0c-0.6,0-0.9,0.2-1,0.8c-0.1,0.5-0.1,1-0.1,1.4c0,5.6,0,11.2,0,16.8
		c0,0.4,0.1,0.5,0.5,0.5c2.7,0,5.4,0,8.1,0c0.1,0,0.3,0,0.4,0c0-0.2,0-0.3,0-0.4c0-5.5,0-11.1,0-16.6c0-0.5,0-1-0.1-1.6
		c-0.1-0.7-0.5-1-1.2-1c-0.6,0-1.1,0-1.8,0c0-0.9,0-1.9,0-2.8c4.7,0,9.5,0,14.2,0C193,91.7,193,92.6,193,93.6z"/>
	<path fill="#B3B3B3" d="M287.8,139.4c-3.7,0-7.3,0-11,0c0-0.9,0-1.8,0-2.8c0.3,0,0.6,0,0.9,0c0.7,0,0.9-0.2,0.9-0.9
		c0-8.7,0-17.3,0-26c0-0.5-0.1-1-0.2-1.4c-0.2-0.8-0.6-1.2-1.5-1.2c-1.5-0.1-2.4,0.5-2.8,2c-0.2,0.9-0.4,1.8-0.4,2.6
		c0,8,0,16.1,0,24.1c0,0.7,0.1,0.8,0.8,0.8c0.3,0,0.5,0,0.8,0c0,1,0,1.9,0,2.8c-3.6,0-7.1,0-10.7,0c0-0.1,0-0.2,0-0.3
		c0-0.5,0-0.9,0-1.4c0-0.3-0.1-0.7,0.1-0.9c0.1-0.2,0.6-0.1,0.9-0.2c0.4,0,0.6-0.3,0.6-0.6s0.1-0.6,0.1-0.9c0-13.2,0-26.4,0-39.6
		c0-0.4,0-0.8-0.1-1.1c-0.1-0.5-0.4-0.7-0.9-0.7s-0.9,0-1.4,0c0-0.9,0-1.8,0-2.8c3.3-0.3,6.6-0.5,10-0.8c0,5.3,0,10.5,0,15.7h0.1
		c0.1-0.1,0.2-0.3,0.3-0.4c1.1-1.4,2.3-2.5,4-3s3.3-0.4,4.9,0.3c1.7,0.7,2.6,2.1,2.9,3.8c0.2,0.8,0.2,1.6,0.2,2.4
		c0,8.8,0,17.5,0,26.3c0,0.3,0,0.6,0.1,0.8c0,0.3,0.2,0.5,0.5,0.5c0.1,0,0.2,0,0.3,0c0.7,0,0.7,0,0.7,0.8
		C287.8,138,287.8,138.7,287.8,139.4z"/>
	<path fill="#B3B3B3" d="M141.3,136.6c0,0.9,0,1.8,0,2.8c-3.7,0-7.3,0-11,0c0-0.9,0-1.8,0-2.8c0.3,0,0.6,0,1,0
		c0.6,0,0.8-0.2,0.8-0.8c0-0.1,0-0.2,0-0.3c0-8.5,0-16.9,0-25.4c0-0.6-0.1-1.2-0.2-1.8c-0.2-0.8-0.6-1.2-1.4-1.3
		c-1.5-0.1-2.5,0.5-2.9,1.9c-0.3,1.1-0.4,2.2-0.4,3.2c0,7.8,0,15.6,0,23.4v0.1c0,0.8,0.1,0.9,0.9,0.9c0.2,0,0.4,0,0.7,0
		c0,1,0,1.9,0,2.8c-3.8,0-7.7,0-11.5,0c0-0.9,0-1.8,0-2.8c0.4,0,0.9,0,1.3,0c0.8,0,1.1-0.2,1.1-1.1c0-9.4,0-18.8,0-28.2
		c0-0.2,0-0.5-0.1-0.7c-0.1-0.4-0.3-0.7-0.8-0.7s-1,0-1.6,0c0-1,0-1.9,0-2.8c3.3-0.2,6.6-0.5,9.9-0.7c0,1.2,0,2.3,0,3.5
		c0.5-0.6,1-1.2,1.5-1.6c2.2-2.1,4.8-2.5,7.6-1.6c1.8,0.6,2.8,2,3.1,3.8c0.2,0.8,0.3,1.7,0.3,2.6c0,8.7,0,17.4,0,26.1
		c0,1.6,0.2,1.5,1.4,1.5C141.1,136.5,141.2,136.6,141.3,136.6z"/>
	<path fill="#B3B3B3" d="M225.9,135.9c-0.1,0.2-0.2,0.4-0.3,0.5c-1,1.5-2.3,2.8-4.1,3.2c-2.1,0.5-4,0.4-5.7-1.1
		c-1.2-1-1.7-2.4-2.1-3.9c-0.5-2.3-0.5-4.6-0.4-6.9c0.1-1.2,0.3-2.3,0.6-3.4c0.6-2.5,2.2-4.3,4.4-5.6c1.9-1.1,4-1.8,6-2.6
		c0.9-0.3,0.9-0.3,0.9-1.2c0-2.2,0-4.4,0-6.6c0-0.5-0.1-1-0.2-1.5c-0.1-0.6-0.5-1.1-1.2-1.3c-1.8-0.5-3.5-0.3-5.3,0.5
		c0.2,0.1,0.3,0.2,0.4,0.3c0.7,0.5,1.5,1,2.1,1.7c0.9,1,1.3,2.1,0.8,3.5c-0.8,1.8-3.6,3.1-5.5,0.9s-2.1-5.8,0.8-8.1
		c1.3-1.1,2.8-1.6,4.4-1.9c2.1-0.3,4.2-0.3,6.3,0.4c2.7,0.9,4.2,2.8,4.7,5.5c0.2,1.1,0.3,2.2,0.3,3.3c0,7.8,0,15.5,0,23.3
		c0,0.2,0,0.5,0,0.7c0,0.3,0.1,0.5,0.5,0.5c0.3,0,0.6-0.1,0.6-0.4c0.1-0.7,0.1-1.3,0.2-2c0-0.5,0-1,0-1.5c0.9,0,1.7,0,2.6,0
		c-0.1,0.9-0.1,1.9-0.2,2.8c-0.1,0.6-0.2,1.3-0.4,1.9c-0.6,2-2,3.1-4,3.2c-1,0-1.9,0-2.9-0.2c-1.3-0.2-2.3-1-2.8-2.3
		C226.2,137,226.1,136.5,225.9,135.9z M225.2,118.4l-0.1-0.1c-0.7,0.5-1.4,0.9-2,1.4c-1,0.7-1.6,1.7-1.9,2.9
		c-0.2,0.8-0.4,1.6-0.4,2.4c-0.1,2.5-0.1,5-0.1,7.5c0,0.6,0.2,1.3,0.3,1.9c0.1,0.5,0.4,0.8,0.9,0.9c1.3,0.3,2.6-0.1,2.9-1.7
		c0.2-0.8,0.3-1.7,0.3-2.6c0-4.1,0-8.1,0-12.2C225.2,118.7,225.2,118.5,225.2,118.4z"/>
	<path fill="#B3B3B3" d="M212.2,120.3c-3.9,0-7.8,0-11.7,0c0,0.1,0,0.2,0,0.3c0,3,0,5.9,0.1,8.9c0.1,1.4,0.3,2.8,0.5,4.2
		c0,0.2,0.1,0.3,0.1,0.5c0.4,1.3,1.3,2.1,2.6,2.2c0.8,0.1,1.6,0,2.4-0.1c0.8-0.1,1.4-0.7,1.7-1.4c0.5-1.1,0.6-2.2,0.6-3.3
		c0.1-1.2,0-2.3,0-3.5c0-0.1,0-0.1,0-0.2c1,0,1.9,0,2.9,0c0,0.6,0.1,1.1,0.1,1.7c0,1.8,0,3.7-0.5,5.4c-0.8,2.7-2.5,4.4-5.3,4.9
		c-2,0.4-4,0.4-5.9-0.2c-2.5-0.7-4.2-2.4-5.3-4.7c-1.1-2.1-1.6-4.3-1.9-6.5c-0.4-2.5-0.5-5.1-0.5-7.6c0.1-3.7,0.4-7.4,1.7-11
		c0.8-2.1,1.9-4.1,3.6-5.6c1.8-1.6,3.9-2.2,6.3-2c1.6,0.1,3.1,0.6,4.4,1.6c1.4,1.1,2.1,2.7,2.6,4.3c0.6,1.9,0.9,3.8,1,5.8
		c0.1,1.9,0.2,3.9,0.2,5.9C212.2,119.9,212.2,120.1,212.2,120.3z M200.5,117.3c0.2,0,0.3,0,0.4,0c1.2,0,2.5,0,3.7,0
		c0.3,0,0.5-0.1,0.5-0.4c0-2.2,0-4.4,0-6.5c0-1.2-0.2-2.4-0.3-3.5c-0.1-0.4-0.3-0.8-0.6-1c-0.9-0.7-2.5-0.2-2.9,0.9
		c-0.2,0.7-0.4,1.5-0.5,2.3c-0.2,2-0.2,3.9-0.3,5.9C200.4,115.7,200.5,116.5,200.5,117.3z"/>
	<path fill="#B3B3B3" d="M117.7,120.3c-4,0-7.8,0-11.7,0c0,0.2,0,0.3,0,0.4c0,2.2,0,4.3,0,6.5c0.1,2,0.1,4.1,0.5,6.1
		c0.1,0.2,0.1,0.5,0.2,0.7c0.5,1.6,1.5,2.3,3.1,2.3c0.3,0,0.7,0,1,0c1.5,0,2.4-0.7,2.8-2.2c0.4-1.4,0.4-2.8,0.5-4.3
		c0-0.7,0-1.4,0-2.1c1,0,1.9,0,2.9,0c0,0.6,0.1,1.1,0.1,1.7c0.1,2,0,4-0.6,5.9c-0.8,2.5-2.5,4-5,4.5c-1.9,0.4-3.8,0.4-5.7,0
		c-2.6-0.7-4.4-2.3-5.7-4.7c-1.1-2.1-1.6-4.4-2-6.7c-0.5-3.1-0.5-6.2-0.4-9.3c0.1-3.2,0.6-6.4,1.8-9.5c0.8-2,1.8-3.8,3.4-5.2
		c1.8-1.6,3.9-2.3,6.3-2.1c1.7,0.1,3.2,0.6,4.5,1.7c1.1,1,1.8,2.3,2.3,3.7c0.7,1.9,1,3.9,1.2,5.8c0.2,2.1,0.2,4.2,0.3,6.3
		C117.7,119.9,117.7,120.1,117.7,120.3z M105.9,117.3c1.5,0,3,0,4.6,0c0-0.1,0-0.1,0-0.2c0-2.5,0-5.1,0-7.6c0-1-0.2-2-0.4-3
		c-0.1-0.4-0.4-0.7-0.8-0.9c-1.4-0.4-2.3,0.1-2.7,1.4c0,0.1,0,0.1-0.1,0.2c-0.2,1.4-0.4,2.8-0.5,4.3c-0.1,1.1-0.1,2.2-0.1,3.4
		C105.9,115.7,105.9,116.5,105.9,117.3z"/>
	<path fill="#B3B3B3" d="M142.9,139.4c0-3.9,0-7.8,0-11.7c1,0,2,0,3,0c0.1,0.9,0.3,1.8,0.4,2.6c0.2,1.3,0.4,2.7,1,3.9
		c1,2.5,3.3,2.8,5.2,2.1c1.2-0.4,1.5-1.4,1.6-2.5c0.4-2.7-0.6-4.9-2.3-6.8c-1.7-2-3.4-3.9-5.1-5.9c-1.3-1.5-2.4-3-3.1-4.9
		c-1.1-3.1-1.3-6.3-0.1-9.4c1.1-2.9,3.4-4.4,6.5-4.7c2.5-0.3,4.7,0.6,6.6,2.2c0.1,0.1,0.2,0.1,0.3,0.2c0.1-0.6,0.1-1.2,0.2-1.8
		c0.8,0,1.7,0,2.5,0c0,3.6,0,7.2,0,10.8c-1,0-2,0-3,0c-0.1-0.8-0.2-1.6-0.3-2.4c-0.1-0.9-0.2-1.9-0.5-2.8c-0.5-2.2-1.8-2.9-4.1-2.7
		c-1.6,0.1-2.2,1-2.3,2.6c-0.2,2.4,0.6,4.4,2.1,6.1c1.5,1.8,3.1,3.5,4.6,5.2c1.4,1.6,2.7,3.2,3.5,5.2c0.9,2.2,1.2,4.5,1.1,6.9
		c-0.1,1.3-0.3,2.6-0.9,3.8c-1.2,2.5-3.2,3.9-5.9,4.3c-1.8,0.3-3.7,0.2-5.3-0.8c-0.7-0.4-1.3-0.9-1.9-1.5c-0.3-0.2-0.5-0.2-0.6,0
		c-0.2,0.5-0.4,1-0.7,1.5c0,0.1-0.1,0.2-0.2,0.2C144.5,139.4,143.7,139.4,142.9,139.4z"/>
	<path fill="#B3B3B3" d="M237.1,139.3c0-0.9,0-1.8,0-2.8c0.3,0,0.7,0,1,0s0.5-0.2,0.5-0.5c0-0.2,0-0.5,0-0.7c0-13.4,0-26.8,0-40.3
		c0-0.3,0-0.5-0.1-0.8c-0.1-0.4-0.2-0.6-0.7-0.6c-0.6,0-1.1,0-1.7,0c0-1,0-1.9,0-2.8c3.3-0.3,6.6-0.5,10-0.8c0,0.2,0,0.4,0,0.6
		c0,14.9,0,29.8,0,44.7c0,0.1,0,0.3,0,0.4c0,0.7,0.3,0.9,0.9,0.9c0.5,0,1.1,0,1.6,0c0,1,0,1.9,0,2.8
		C244.9,139.3,241,139.3,237.1,139.3z"/>
	<path fill="#B3B3B3" d="M258.1,93.2c0,0.2,0,0.4,0,0.5c0,2.9,0,5.7,0,8.6c0,0.4,0.1,0.5,0.5,0.5c1.5,0,3,0,4.5,0c0.1,0,0.3,0,0.5,0
		c0,1,0,2,0,3c-0.2,0-0.3,0-0.5,0c-1.5,0-2.9,0-4.4,0c-0.6,0-0.6,0-0.6,0.6c0,6.6,0,13.1,0,19.7c0,2.6,0,5.1,0,7.7
		c0,0.5,0.1,1,0.1,1.4c0.1,0.6,0.5,0.9,1.1,0.9c0.7,0,1.1-0.2,1.2-0.9c0.1-0.5,0.2-1,0.2-1.5c0-2,0-3.9,0-5.9c0-0.1,0-0.3,0-0.5
		c1,0,2,0,3,0c0,0.1,0,0.3,0,0.4c0,1.8,0,3.6,0,5.3c0,1.1-0.1,2.2-0.5,3.2c-0.6,1.9-1.9,3-3.8,3.4c-1.7,0.4-3.5,0.3-5.2-0.1
		c-2.1-0.5-3.2-1.9-3.4-3.9c-0.2-1.1-0.2-2.2-0.2-3.3c0-8.7,0-17.4,0-26.1c0-0.2,0-0.4,0-0.6c-0.8,0-1.6,0-2.5,0c0-1,0-2,0-3
		c0.3,0,0.7,0,1,0c1.1,0,2-0.4,2.6-1.3c0.9-1.1,1.4-2.4,2-3.7c0.5-1.4,1-2.8,1.5-4.2c0.1-0.3,0.2-0.4,0.5-0.4
		C256.5,93.2,257.3,93.2,258.1,93.2z"/>
	<path fill="#B3B3B3" d="M141.3,104.4c-0.6-0.6-1.2-1.3-1.8-2c1.3-1.3,2.6-2.5,3.9-3.8c-0.5-0.3-1-0.5-1.4-0.8
		c-0.9-0.6-1.7-1.5-2.1-2.6c-0.4-1.3-0.1-2.5,0.9-3.5s2.2-1.3,3.5-0.8c2.8,0.9,4.2,4.2,3,7c-0.6,1.4-1.6,2.6-2.7,3.7
		c-1,0.9-2,1.8-3.1,2.6C141.5,104.3,141.4,104.4,141.3,104.4z"/>
</g>
</svg>
