<?xml version="1.0" encoding="utf-8"?>
<!-- Generator: Adobe Illustrator 17.1.0, SVG Export Plug-In . SVG Version: 6.00 Build 0)  -->
<!DOCTYPE svg PUBLIC "-//W3C//DTD SVG 1.1//EN" "http://www.w3.org/Graphics/SVG/1.1/DTD/svg11.dtd">
<svg version="1.1" id="Layer_1" xmlns="http://www.w3.org/2000/svg" xmlns:xlink="http://www.w3.org/1999/xlink" x="0px" y="0px"
	 viewBox="0 0 350 230" enable-background="new 0 0 350 230" xml:space="preserve">
<g>
	<path fill="#B3B3B3" d="M143.5,99c-2.7-2.3-2.8-5.9,0.1-7.5c1.9-1.1,4.1-1.8,6.3-2.1c5.4-0.8,10.7,0,15.6,2.5
		c4.1,2.1,6.9,5.3,8.5,9.6c2.8,7.5,3.2,15.2,0.5,22.8c-2.4,6.9-8.7,12.9-17.9,12.5c-3.7-0.2-7.5,0-11.3,0c-0.5,0-1-0.1-1.7-0.1
		c0.3-0.4,0.3-0.6,0.4-0.6c3.1-1.3,3.5-1.9,3.5-5.4c0-8.8,0-17.7,0-26.5c0-2.4,0.1-4.7,0-7.1c-0.1-2,0.9-3.2,2.6-4.1
		c2.4-1.3,3.7-0.5,3.7,2.2c0,11.2,0,22.4,0,33.6c0,0.4,0,0.8,0,1.1c0.1,4.3,2.1,5.9,6.4,4.8c2.9-0.7,4.6-2.7,5.8-5.4
		c1.7-3.8,2.1-7.9,2.2-12.1c0.2-5.7,0-11.4-1.9-16.8c-2.4-6.8-8.6-10.5-15.8-9.6C146.4,91.3,144,93.9,143.5,99z"/>
	<path fill="#B3B3B3" d="M223.8,113.7c7.3-2.6,10.1-9.9,6.7-16.8c-1.5-3.1-4.7-4.4-8.2-3.4c0,0.6,0,1.2,0,1.9
		c0,11.8,0.1,23.7,0.1,35.5c0,2.5,0.5,4.6,3.4,5.1c0.1,0,0.2,0.2,0.4,0.5c-4.9,0-9.6,0-14.8,0c0.6-0.4,0.8-0.6,1.1-0.7
		c2-0.3,2.8-1.6,3-3.4c0.1-0.9,0.2-1.7,0.2-2.6c0-10.6,0-21.1,0-31.7c0-0.8-0.1-1.6-0.2-2.4c-0.2-1.9-1-3.2-3-3.7
		c-0.3-0.1-0.5-0.2-0.9-0.4c0.3-0.2,0.4-0.3,0.5-0.3c5.5,0,11-0.3,16.4,0.2c6.9,0.5,10.3,5.1,9.6,12c-0.4,4.7-2.7,8-7.1,9.9
		c-0.2,0.1-0.5,0.2-0.7,0.3c1.3,1,2.7,1.8,3.8,2.9c2,2,2.7,4.6,3.2,7.2c0.6,3.2,1,6.4,1.7,9.5c1.1,4.8,2.8,6,7.8,6.1
		c-0.4,0.3-0.7,0.6-1,0.7c-4.7,1.8-10.6,0.9-12.4-5.9c-1-4-1.5-8.1-2.4-12.1c-0.3-1.4-0.6-2.8-1.1-4.2c-0.9-2.2-2.6-3.6-5.1-3.9
		c-0.3,0-0.5-0.1-0.8-0.2C224,113.9,223.9,113.8,223.8,113.7z"/>
	<path fill="#B3B3B3" d="M83.5,90.8c3.2-2.7,8-2.2,10.6,0.9c1.1,1.3,2,3,2.5,4.6c2.8,7.9,5.4,15.9,8.1,23.8c0.1,0.4,0.3,0.7,0.5,1.4
		c0.8-2.9,1.5-5.5,2.3-8.1c1.7-6.4,3.5-12.8,5.2-19.2c0.6-2.2,1.4-2.9,3.8-2.9c2.3,0,4.5,0,6.8,0c0,0.4,0,0.5-0.1,0.6
		c-3.1,1.1-3.5,3.7-3.6,6.5c-0.1,8.6-0.2,17.3-0.2,25.9c0,2-0.1,4,0,5.9c0.2,4.3,0.3,4.3,4.3,6.2c-5.1,0-9.7,0-14.4,0
		c0.1-0.2,0.1-0.4,0.2-0.4c3.8-0.6,3.7-3.5,3.7-6.3c0.1-9.6,0.2-19.2,0.2-28.8c0-0.7,0-1.4-0.3-2.1c-3.3,12-6.7,24-10,35.9
		c-0.2,0-0.3,0-0.5,0c-0.2-0.9-0.3-1.8-0.5-2.7c-2.1-6.6-4.2-13.3-6.3-19.9c-1.6-5-3.3-10.1-4.9-15.1c-0.1-0.4-0.2-0.7-0.4-1.1
		C89.5,92.8,87.9,90.2,83.5,90.8z"/>
	<path fill="#B3B3B3" d="M179.8,113.7c0.1-5,0.6-10.3,3.1-15.2c2.7-5.2,6.9-8,12.9-7.8c5.7,0.2,9.5,3,11.9,7.9
		c2.9,5.8,3.3,12.1,3,18.5c-0.2,4.1-0.9,8.2-2.7,12c-2.5,5.2-6.5,8.3-12.6,8.4c-6.2,0-10.2-3-12.8-8.3
		C180.3,124.4,179.8,119.2,179.8,113.7z M204,115.3c-0.4-4.4-0.5-7.6-0.9-10.8c-0.4-3.4-1.2-6.8-3.2-9.7c-2.4-3.5-6.8-3.6-9.1,0
		c-1.2,1.9-2.2,4.2-2.7,6.5c-1.7,7.5-1.6,15.1-0.6,22.7c0.4,3.2,1.2,6.4,3.1,9.2c2.6,3.7,6.9,3.7,9.3-0.1c1-1.5,1.8-3.2,2.2-5
		C202.9,123.5,203.5,118.8,204,115.3z"/>
	<path fill="#B3B3B3" d="M125.8,136.5c0.4-0.4,0.5-0.6,0.7-0.6c2.6-0.3,3.3-2.1,3.4-4.3c0-0.5,0.1-1.1,0.1-1.6c0-10.7,0-21.4,0-32.1
		c0-0.9-0.1-1.7-0.2-2.6c-0.2-1.7-1-2.8-2.7-3.1c-0.3-0.1-0.6-0.2-0.9-0.7c4.8,0,9.5,0,14.4,0c-0.1,0.2-0.2,0.4-0.3,0.5
		c-3,1.1-3.5,1.7-3.5,4.9c0,11.4,0,22.8,0,34.2c0,2.4,0.6,4.5,3.5,4.9c0.1,0,0.2,0.2,0.4,0.6C135.7,136.5,130.9,136.5,125.8,136.5z"
		/>
	<path fill="#B3B3B3" d="M242.7,91.4c4.7,0,9.5,0,14.3,0c-0.2,0.3-0.2,0.5-0.3,0.5c-3,1.1-3.5,1.8-3.5,4.9c0,10.8,0,21.6,0,32.5
		c0,2.9-0.5,6.2,4,6.8c-0.1,0.1-0.2,0.3-0.3,0.4c-4.7,0-9.5,0-14.5,0c0.4-0.3,0.5-0.5,0.7-0.6c2.7-1,3.4-1.8,3.4-4.7
		c0-11.5,0-23,0-34.5c0-2.6-0.9-4.5-4-4.7C242.6,91.8,242.6,91.6,242.7,91.4z"/>
	<path fill="#B3B3B3" d="M90.6,99.1c0.1,1.1,0.3,2.2,0.4,3.3c0.8,9,1,18.1,0.2,27.1c-0.1,1.2-0.3,2.4-0.7,3.6
		c-1.1,3.9-3.8,5.7-8,5.5c0-0.1,0-0.3,0.1-0.4c4.4-4,6.3-9.2,6.6-14.9c0.4-7.4,0.6-14.9,0.8-22.3c0-0.6,0-1.2,0-1.9
		C90.2,99.1,90.4,99.1,90.6,99.1z"/>
	<path fill="#B3B3B3" d="M263,134.5c-2.5,0-4.5-1.9-4.5-4.4s2-4.6,4.6-4.6c2.5,0,4.4,2,4.4,4.5C267.5,132.5,265.6,134.4,263,134.5z
		 M261.1,132.8c1.3,1.2,2.5,1.2,4.2,0c2-1.3,1.7-3.9,0.6-5.2c-1.2-1.5-3.2-1.7-4.8-0.6c-1.4,0.5-1.8,1.7-1.7,3.1
		C259.4,131.3,259.6,132.5,261.1,132.8z"/>
	<path fill="#B3B3B3" d="M265.3,132.9c-1.1,0.2-1.1-0.7-1.5-1.3c-0.3-0.5-0.8-0.9-1.2-1.2c-1,0.9,0.4,2.5-1.5,2.5c0-1.9,0-3.9,0-5.8
		c0.8,0,1.7,0,2.5,0c1.2,0.1,2.1,1.3,1.5,2C263.9,130.5,265.1,131.6,265.3,132.9z M262,129.8c0.9-0.2,1.5-0.3,2.1-0.6
		c0.1-0.1,0.1-0.9,0-1c-0.6-0.2-1.2-0.3-2-0.5C262,128.5,262,128.9,262,129.8z"/>
</g>
</svg>
