<?xml version="1.0" encoding="utf-8"?>
<!-- Generator: Adobe Illustrator 17.1.0, SVG Export Plug-In . SVG Version: 6.00 Build 0)  -->
<!DOCTYPE svg PUBLIC "-//W3C//DTD SVG 1.1//EN" "http://www.w3.org/Graphics/SVG/1.1/DTD/svg11.dtd">
<svg version="1.1" id="Layer_1" xmlns="http://www.w3.org/2000/svg" xmlns:xlink="http://www.w3.org/1999/xlink" x="0px" y="0px"
	 viewBox="0 0 350 230" enable-background="new 0 0 350 230" xml:space="preserve">
<g>
	<path fill="#B3B3B3" d="M84,105.5c-0.3-12.5,19-32,33.7-32.4c7.3-0.2,8.3,3.3,7,9.7c-10.6-4-33.1,11.7-32.8,24.4
		c0.3,11.7,19.5,16.7,19.8,28c0.2,7.8-8,13.3-18.8,13.6c-5.4,0.2-10.1-1.2-11.4-2.4c-2.6-2.4-1.3-4.3,0.7-3.4c2,0.9,2.5,2,7.6,1.8
		c8.5-0.2,12.3-5.7,12.1-10C101.5,124.3,84.4,120.6,84,105.5"/>
	<path fill="#B3B3B3" d="M180,111.9c-0.1-4.9,9.1-15.2,16.2-15.5c3.5-0.1,4.7,2.6,3.2,5.4c-5.2-0.9-13.1,7.7-12.9,13.7
		c0.2,6.9,11.8,11.7,12,18.3c0.1,4.5-5,7.3-10.3,7.4c-5.6,0.2-8.1-1.6-9.8-3.1c-1.1-1,0.3-4.7,1.3-3.5c1.4,1.7,4.8,2.9,6.6,2.9
		c4.1-0.1,4.4-1.9,4.3-4.5C190.5,126.8,180.3,120.6,180,111.9"/>
	<path fill="#B3B3B3" d="M113.6,152.9c-0.2-6.1-1.4-48-1.4-50.7c0,0-0.1-2.3-0.5-2.7c1.2-1.3,3.5-2.1,5.3-0.6
		c1.8,1.5,1.5,8.5,1.5,8.5c1.7-3.4,4.1-3.5,6.2-3.6c3.5-0.1,8.4,6,8.8,19.6c0.3,11.6-2.9,17.9-8.6,18c-2.1,0.1-4.3-0.5-5.2-1.3
		c0.2,5.2,0.3,10.1,0.4,13.7C120.1,157.6,113.7,158.3,113.6,152.9 M122.4,136.3c3.9-0.1,5.3-7.8,5.2-13.3
		c-0.2-6.6-1.4-13.6-3.7-13.5c-2.1,0.1-5.3,12.4-5,20.2C119,135.9,121.2,136.3,122.4,136.3"/>
	<path fill="#B3B3B3" d="M136.2,130.3c-0.3-9.7,2.4-21.5,6.4-21.6c1.8-0.1,4.1,1.6,4.1,1.9c0.1,1.3-0.1,4.7,2.9,4.6
		c3.7-0.1,5-4.8,4.9-8.6c0.4-1.8,5.1-1.8,5.5,0c-0.2,1.3,0.2,5.2,0.2,5.2c1.5-1,1.8-1.4,4.9-1.5c3.4-0.1,5.2,2.5,5.3,4.6
		c0,0.9-0.7,1.4-2.2,0.7c-0.5-0.2-1.7-0.7-3.1-0.7c-4.7,0.1-4.9,12.8-4.4,22.7c-3.6,1.9-6-2.7-6.1-6.5c-0.1-3.8,0.1-10.6,0.1-14.1
		c-1.5,1.5-2.9,1.9-5,2c1.8,10,2,22.8-5.9,23C139.2,142.4,136.4,136.6,136.2,130.3 M143.5,137.6c1.8-0.1,2.6-7.4,2.5-11.5
		c-0.1-4.9-1.3-8.8-2-8.8c-1.2,0.1-2.6,8-2.5,14.5C141.6,136.8,142.8,137.7,143.5,137.6"/>
	<path fill="#B3B3B3" d="M150.7,93.4c-3.7,0-3.8-3.3,0-3.3c3.9,0,18.1,0,19.5,0c2.9,0,2.6,0.2,2.6-1.6c0-1.2,0-4.4,0-6.6
		s4-4.9,6.6-2.2c0,0-0.4,1.4-0.3,3.4c0,0,0,4.1,0,5.3c0,1.8,0.7,2.2,2.8,2.2c2.6,0,17.2,0,19.2,0c3.4,0,3.6,3.3-0.2,3.3
		c-5.6,0-16.8,0-19.4,0c-2.9,0-3,0.5-3.4,2.3c-0.5,2.3-2,38.5-1.8,40.9c0.2,2.5,0,4,0.4,6.3c-3.8,2.5-6.6,0.3-5.7-4.1
		c0.9-4.2,1.4-40.1,1.3-43.1c-0.1-2.2-0.7-2.9-3.1-2.9C167.4,93.4,153.9,93.4,150.7,93.4"/>
	<path fill="#B3B3B3" d="M199.3,129c-0.3-12.7,4.8-26.6,12.5-26.8c2.9-0.1,6.6,0.7,6.7,4.9c0.6-1.1,3.7-0.6,3.7,1
		c-2.7,8.5-0.7,23.4,0.9,33c1.1,6.5-4.8,13.6-12.7,13.9c-6,0.2-12.3-1.9-16-6.5c-4-4.9-1.4-4.6,1-2.4c2.5,2.4,6.6,4,10.8,3.9
		c8.9-0.2,12.1-6.6,9.7-18.3c-3.4,3.6-4.4,6.3-8.4,6.4C202.9,138.3,199.5,134.6,199.3,129 M212.5,106.8c-4.7,0.1-7.8,17.8-7.7,22.4
		c0.1,2.1,1.4,4.8,3.1,4.8c2.8-0.1,7.8-13.6,7.6-21.4C215.4,108.9,213.9,106.8,212.5,106.8"/>
	<path fill="#B3B3B3" d="M232,101.5c2.5-0.1,4.1-2.1,4.1-4.6c-0.1-2.6-1.9-4.2-4.4-4.2c-2.5,0.1-4.4,1.9-4.3,4.5
		C227.4,99.8,229.5,101.6,232,101.5"/>
	<path fill="#B3B3B3" d="M227.6,106c0.6-1.9,5.8-1.4,6.5-0.2c-0.1,1.9-2.4,17-1,23.4c2.3,10.3,6.5-11.2,9.2-25.7
		c1-1.8,6.2-1.7,7,0.2c0.1,1.4-0.1,5.7-0.1,5.7c2.3-1.4,2.7-1.3,3.8-1.3c1.7,0.1,4.5,0.9,5.8,2.9c-8.3,0.2-9.8,2.2-9.1,24.5
		c-1.3,3.1-5.3,2.3-5.8-2.1c-0.7-5.9-0.1-10.9-0.4-14.8c-1.8,1.7-2.3,18.2-10.5,18.4C224.3,137.5,227.8,112.1,227.6,106"/>
	<path fill="#B3B3B3" d="M262.6,77.3c-0.1-3.8,8.2-3.1,7.3-1.1c-1.3,3-4.4,61.4-3.5,66.8c-1.9,4.4-6.4,2.3-6.5-2.6
		C259.8,135.4,262.7,80.3,262.6,77.3"/>
</g>
</svg>
